<?xml version="1.0" encoding="UTF-8"?>
<svg id="Capa_2" data-name="Capa 2" xmlns="http://www.w3.org/2000/svg" xmlns:xlink="http://www.w3.org/1999/xlink" viewBox="0 0 283.46 99.21">
  <defs>
    <style>
      .cls-1 {
        fill: none;
      }

      .cls-1, .cls-2 {
        stroke-width: 0px;
      }

      .cls-2 {
        fill: url(#Degradado_sin_nombre_9);
      }
    </style>
    <linearGradient id="Degradado_sin_nombre_9" data-name="Degradado sin nombre 9" x1="58.38" y1="49.61" x2="225.09" y2="49.61" gradientUnits="userSpaceOnUse">
      <stop offset="0" stop-color="#00aeef"/>
      <stop offset="1" stop-color="#262262"/>
    </linearGradient>
  </defs>
  <g id="Layer_1" data-name="Layer 1">
    <g>
      <rect class="cls-1" width="283.46" height="99.21"/>
      <g>
        <path class="cls-2" d="M58.38,25.11h11.24c3.55,0,6.3.28,8.26.82,1.96.55,3.7,1.65,5.21,3.31,1.52,1.66,2.71,4.34,3.59,8.03.59,2.5.61,4.24.05,5.23-.56.99-1.95,1.74-4.17,2.27,2.75.58,4.75,1.55,6,2.9,1.25,1.35,2.21,3.42,2.87,6.22l.94,3.98c.69,2.9.86,5.05.52,6.45-.34,1.4-1.18,2.36-2.53,2.87-1.35.51-4.3.77-8.85.77h-13.09s-10.05-42.86-10.05-42.86ZM71.37,32.42l2.24,9.51c.48-.02.85-.03,1.12-.03,1.11,0,1.75-.27,1.93-.81.18-.54-.03-2.08-.63-4.61-.32-1.34-.66-2.28-1.04-2.81-.38-.54-.78-.88-1.22-1.02-.44-.14-1.23-.22-2.4-.24ZM75.18,48.6l2.83,12.01c1.58-.05,2.54-.3,2.87-.74.33-.44.3-1.53-.11-3.26l-.94-4c-.43-1.84-.89-2.95-1.38-3.34-.49-.39-1.57-.61-3.27-.66Z"/>
        <path class="cls-2" d="M119.01,51h-14.03s1.81,7.6,1.81,7.6c.38,1.59.74,2.62,1.08,3.08.34.46.84.69,1.51.69.82,0,1.3-.3,1.43-.91.13-.61-.01-1.79-.43-3.54l-1.11-4.64h10.27s.62,2.6.62,2.6c.52,2.17.78,3.85.79,5.01,0,1.17-.35,2.42-1.05,3.74s-1.76,2.32-3.17,2.99c-1.41.66-3.29,1-5.66.99s-4.4-.33-6.31-.99c-1.91-.66-3.49-1.55-4.74-2.7-1.25-1.14-2.22-2.4-2.92-3.77s-1.36-3.37-1.98-5.98l-2.43-10.25c-.73-3.07-.88-5.49-.46-7.26.42-1.77,1.47-3.13,3.16-4.07,1.69-.94,3.77-1.41,6.25-1.41,3.03,0,5.67.57,7.92,1.71,2.24,1.14,3.99,2.64,5.23,4.52,1.24,1.88,2.28,4.52,3.09,7.92l1.12,4.66ZM106.78,45.28l-.61-2.57c-.43-1.82-.81-2.99-1.13-3.52-.32-.53-.79-.79-1.39-.79-.75,0-1.16.22-1.23.67-.07.45.13,1.66.6,3.64l.61,2.57h3.16Z"/>
        <path class="cls-2" d="M127.46,25.14l1.34,5.57h-11.14s-1.34-5.57-1.34-5.57h11.13ZM129.32,32.84l8.48,35.15h-11.18s-8.44-35.15-8.44-35.15h11.14Z"/>
        <path class="cls-2" d="M144.66,32.85l6.75,27.79c.79,3.27,1.27,5.49,1.41,6.65.15,1.16-.02,2.18-.49,3.06-.48.88-1.24,1.53-2.29,1.95-1.05.43-2.73.64-5.05.64h-4.19s-1.36-5.64-1.36-5.64c1.29,0,1.98-.14,2.07-.42s-.25-2.05-1.04-5.31l-6.94-28.72h11.14ZM142.79,25.14l1.35,5.56h-11.13s-1.34-5.57-1.34-5.57h11.13Z"/>
        <path class="cls-2" d="M157.8,25.15l1.36,5.56h-11.13s-1.35-5.57-1.35-5.57h11.13ZM159.68,32.85l8.58,35.15h-11.17s-8.54-35.15-8.54-35.15h11.14Z"/>
        <path class="cls-2" d="M174.56,32.86l.61,3.23c.47-1.29,1.19-2.25,2.17-2.89.98-.64,2.2-.96,3.68-.96,1.86,0,3.48.43,4.87,1.3,1.39.86,2.42,1.95,3.08,3.26.66,1.31,1.37,3.5,2.13,6.57l6.09,24.66h-10.85s-5.99-24.37-5.99-24.37c-.59-2.41-1.04-3.89-1.33-4.41s-.8-.79-1.53-.79c-.77,0-1.18.3-1.22.91-.05.61.25,2.23.9,4.88l5.84,23.78h-10.85s-8.6-35.15-8.6-35.15h11Z"/>
        <path class="cls-2" d="M216.8,32.87l6.75,27.04c.91,3.66,1.42,6.03,1.52,7.1.1,1.07-.22,2.2-.96,3.4-.74,1.2-1.96,2.11-3.66,2.74-1.7.63-3.95.94-6.76.94-3.46,0-6.38-.58-8.76-1.74-2.38-1.16-4.03-3.44-4.94-6.84h10.52c.39,1.56,1.15,2.34,2.3,2.34.82,0,1.31-.24,1.46-.72.15-.48.03-1.48-.34-3l-.66-2.66c-.72.83-1.55,1.46-2.47,1.89-.92.43-1.95.64-3.08.64-1.95,0-3.65-.39-5.11-1.17-1.45-.78-2.57-1.8-3.35-3.07-.78-1.26-1.46-3.06-2.03-5.4l-3.16-12.76c-.82-3.33-.81-5.72.04-7.19.85-1.46,2.52-2.19,5-2.19,1.36,0,2.66.27,3.91.82,1.25.55,2.45,1.37,3.6,2.46l.12-2.65h10.06ZM208.27,42.17c-.4-1.6-.75-2.63-1.04-3.07-.3-.44-.77-.66-1.41-.66s-1,.25-1.14.75c-.13.5-.02,1.49.35,2.97l2.93,11.81c.39,1.57.74,2.59,1.06,3.06.31.47.78.7,1.41.7.72,0,1.11-.28,1.18-.85.07-.56-.14-1.85-.63-3.84l-2.71-10.88Z"/>
      </g>
    </g>
  </g>
</svg>