<?xml version="1.0" encoding="UTF-8"?>
<svg id="Capa_2" data-name="Capa 2" xmlns="http://www.w3.org/2000/svg" xmlns:xlink="http://www.w3.org/1999/xlink" viewBox="0 0 396.16 110.28">
  <defs>
    <style>
      .cls-1 {
        fill: url(#Degradado_sin_nombre_11);
        stroke-width: 0px;
      }
    </style>
    <linearGradient id="Degradado_sin_nombre_11" data-name="Degradado sin nombre 11" x1="0" y1="55.14" x2="396.16" y2="55.14" gradientUnits="userSpaceOnUse">
      <stop offset="0" stop-color="#00aeef"/>
      <stop offset="1" stop-color="#262262"/>
    </linearGradient>
  </defs>
  <g id="Layer_1" data-name="Layer 1">
    <g>
      <path class="cls-1" d="M5.53.25l11.46.05c3.62.02,6.43.3,8.43.87,2,.56,3.79,1.69,5.36,3.39,1.57,1.7,2.83,4.42,3.79,8.18.64,2.54.69,4.31.13,5.31-.55,1-1.95,1.76-4.2,2.29,2.8.6,4.85,1.59,6.14,2.96,1.29,1.37,2.29,3.47,3.01,6.3l1.02,4.03c.74,2.93.95,5.11.63,6.52-.32,1.41-1.16,2.37-2.52,2.89-1.36.52-4.34.77-8.95.76l-13.27-.03L5.53.25ZM18.9,7.75l2.45,9.67c.49-.02.87-.02,1.14-.02,1.13,0,1.77-.27,1.95-.81.17-.55-.07-2.11-.72-4.69-.34-1.36-.71-2.32-1.11-2.86-.39-.55-.81-.89-1.26-1.04-.45-.14-1.26-.23-2.45-.25ZM23.07,24.19l3.08,12.16c1.6-.05,2.57-.3,2.9-.74.33-.45.27-1.55-.17-3.3l-1.03-4.05c-.47-1.86-.96-2.99-1.46-3.38-.5-.39-1.61-.62-3.33-.68Z"/>
      <path class="cls-1" d="M67.57,26.74l-14.21-.05,1.95,7.7c.41,1.61.79,2.65,1.14,3.11.35.47.86.7,1.54.7.83,0,1.31-.3,1.44-.92.12-.62-.04-1.81-.48-3.58l-1.19-4.69,10.41.03.66,2.63c.56,2.2.84,3.89.86,5.06.02,1.18-.32,2.44-1.01,3.77s-1.75,2.34-3.16,3c-1.42.67-3.32,1-5.71.99s-4.45-.34-6.39-1.01c-1.94-.67-3.56-1.58-4.84-2.73-1.28-1.16-2.29-2.43-3.02-3.81-.73-1.39-1.43-3.4-2.1-6.05l-2.63-10.38c-.79-3.11-.98-5.57-.59-7.36.4-1.8,1.45-3.17,3.15-4.12,1.7-.95,3.81-1.42,6.33-1.41,3.08.01,5.77.6,8.07,1.76,2.29,1.16,4.09,2.7,5.37,4.6,1.29,1.91,2.37,4.59,3.24,8.04l1.19,4.72ZM55.1,20.91l-.66-2.6c-.47-1.84-.87-3.03-1.2-3.57-.34-.54-.81-.81-1.43-.81-.76,0-1.18.22-1.24.68-.07.46.15,1.69.66,3.69l.66,2.6h3.21Z"/>
      <path class="cls-1" d="M77.47,8.37l.75,4.68c.75-3.34,2.61-5.11,5.58-5.29l3.16,12.51c-2.01,0-3.41.26-4.22.79-.81.53-1.2,1.28-1.17,2.23.02.96.47,3.16,1.34,6.6l3.54,14.03-10.96-.03-8.99-35.57,10.97.04Z"/>
      <path class="cls-1" d="M111.47,8.51l8.94,35.51-11.12-.03-.55-2.95c-.46,1.2-1.16,2.09-2.12,2.69-.96.6-2.16.89-3.61.89-1.64,0-3.08-.29-4.31-.87s-2.22-1.33-2.97-2.28c-.75-.95-1.32-1.93-1.71-2.96-.39-1.03-.96-3.07-1.73-6.12l-6.05-23.98,10.96.04,6.09,24.18c.7,2.77,1.2,4.41,1.5,4.93.3.52.83.78,1.59.78.81,0,1.23-.26,1.25-.8.02-.53-.34-2.26-1.07-5.16l-6.02-23.91,10.94.04Z"/>
      <path class="cls-1" d="M127.37.76l1.38,5.49c-2.25,0-3.56.09-3.91.29-.35.2-.41.79-.17,1.75l.28,1.12,4.6.02,1.41,5.62h-2.6s7.29,29,7.29,29l-10.92-.03-7.3-29.02h-2.25s-1.41-5.63-1.41-5.63h2.25c-.59-2.33-.9-3.89-.94-4.68-.04-.78.19-1.48.68-2.1.49-.61,1.27-1.08,2.34-1.39,1.07-.32,2.83-.47,5.26-.46l4,.02Z"/>
      <path class="cls-1" d="M142.2,8.62l.66,3.38c.51-1.34,1.27-2.34,2.27-3,1-.66,2.25-.99,3.74-.99,2.92.01,5.55,1.36,7.89,4.04.58-1.34,1.36-2.33,2.35-3,.98-.66,2.18-.99,3.58-.99,1.85,0,3.5.46,4.93,1.35,1.44.9,2.49,1.99,3.15,3.28.66,1.29,1.36,3.39,2.09,6.29l6.31,25.17-10.56-.03-5.79-23.1c-.76-3.03-1.33-4.9-1.72-5.62-.39-.72-.96-1.08-1.71-1.09s-1.18.35-1.23,1.06c-.05.71.31,2.59,1.08,5.64l5.79,23.1-10.57-.03-5.65-22.52c-.87-3.47-1.48-5.56-1.83-6.26-.35-.7-.91-1.05-1.68-1.05-.49,0-.85.18-1.1.54-.25.36-.33.81-.23,1.33.1.53.36,1.64.79,3.35l6.17,24.58-10.58-.03-8.92-35.48,10.78.04Z"/>
      <path class="cls-1" d="M203.25,27.17l-14.07-.04,1.92,7.66c.4,1.6.78,2.63,1.12,3.09.35.46.85.7,1.52.7.82,0,1.3-.3,1.42-.92.12-.61-.03-1.8-.47-3.56l-1.17-4.67,10.3.03.65,2.61c.55,2.19.83,3.87.84,5.04.02,1.17-.32,2.42-1.01,3.75s-1.73,2.33-3.13,2.99c-1.4.66-3.29.99-5.65.98s-4.4-.34-6.33-1c-1.92-.66-3.52-1.57-4.78-2.72-1.27-1.15-2.26-2.41-2.98-3.79-.72-1.38-1.41-3.39-2.07-6.02l-2.59-10.33c-.78-3.1-.97-5.54-.57-7.33.4-1.79,1.44-3.15,3.12-4.1,1.68-.95,3.77-1.41,6.27-1.4,3.05.01,5.71.6,7.98,1.75,2.27,1.16,4.04,2.68,5.31,4.58,1.27,1.9,2.34,4.56,3.19,7.99l1.17,4.69ZM190.92,21.37l-.65-2.59c-.46-1.83-.85-3.02-1.18-3.55-.33-.53-.8-.8-1.41-.81-.75,0-1.16.22-1.23.68-.07.45.15,1.68.65,3.67l.65,2.59h3.18Z"/>
      <path class="cls-1" d="M227.2,20.24l-9.61-.03-.48-1.92c-.41-1.64-.76-2.67-1.06-3.11-.3-.44-.82-.66-1.57-.66-.61,0-1.02.2-1.22.6-.21.4-.21,1,0,1.8.27,1.08.55,1.88.82,2.39.28.51.87,1.06,1.79,1.67.91.61,2.69,1.49,5.35,2.65,3.53,1.54,5.96,2.98,7.28,4.34,1.32,1.35,2.3,3.32,2.94,5.89.72,2.88.88,5.05.5,6.51-.39,1.46-1.36,2.59-2.93,3.37-1.56.79-3.59,1.18-6.08,1.17-2.76,0-5.22-.44-7.39-1.3-2.17-.86-3.81-2.02-4.91-3.47-1.1-1.46-2.02-3.66-2.75-6.61l-.43-1.71,9.62.03.56,2.24c.47,1.9.9,3.14,1.29,3.7.38.57.93.85,1.65.86.77,0,1.26-.19,1.47-.57.21-.38.16-1.18-.15-2.41-.42-1.69-.88-2.74-1.38-3.17-.52-.43-2.94-1.7-7.26-3.8-3.63-1.79-5.98-3.41-7.04-4.86-1.06-1.45-1.84-3.17-2.34-5.16-.71-2.83-.85-4.91-.43-6.25.42-1.34,1.44-2.37,3.05-3.09,1.62-.72,3.62-1.08,6-1.07s4.45.31,6.25.92c1.8.6,3.27,1.39,4.4,2.37,1.13.98,1.89,1.89,2.29,2.73.4.84.82,2.14,1.26,3.92l.51,2.05Z"/>
      <path class="cls-1" d="M253.05,20.33l-9.59-.03-.48-1.92c-.41-1.63-.76-2.67-1.05-3.1-.3-.44-.82-.66-1.57-.66-.61,0-1.01.2-1.22.59-.2.4-.21,1,0,1.8.27,1.08.54,1.88.82,2.38.28.51.87,1.06,1.78,1.67.91.61,2.69,1.49,5.33,2.65,3.52,1.54,5.94,2.98,7.26,4.33,1.32,1.35,2.3,3.31,2.94,5.89.72,2.87.88,5.04.5,6.5-.39,1.46-1.36,2.58-2.92,3.37-1.56.78-3.58,1.17-6.06,1.17-2.75,0-5.21-.44-7.38-1.3-2.17-.86-3.8-2.01-4.9-3.47-1.1-1.46-2.01-3.66-2.75-6.61l-.43-1.7,9.6.03.56,2.24c.47,1.9.9,3.13,1.28,3.7.38.57.93.85,1.65.86.77,0,1.26-.19,1.46-.57.21-.38.16-1.18-.14-2.41-.42-1.69-.88-2.74-1.38-3.17-.52-.43-2.93-1.69-7.24-3.8-3.62-1.79-5.97-3.4-7.02-4.85-1.06-1.45-1.84-3.17-2.33-5.16-.7-2.82-.85-4.91-.43-6.25.42-1.34,1.43-2.37,3.05-3.09,1.62-.72,3.61-1.08,5.99-1.07s4.44.31,6.24.92c1.8.6,3.26,1.39,4.39,2.37,1.13.98,1.89,1.89,2.28,2.72.39.84.81,2.14,1.26,3.92l.51,2.05Z"/>
      <path class="cls-1" d="M282.99,27.42l-13.98-.04,1.9,7.63c.4,1.6.77,2.62,1.11,3.09.35.46.85.69,1.51.69.82,0,1.29-.3,1.42-.91.12-.61-.03-1.79-.47-3.55l-1.16-4.65,10.24.03.65,2.61c.54,2.18.82,3.85.83,5.02.01,1.17-.32,2.42-1.01,3.74s-1.72,2.32-3.12,2.98c-1.39.66-3.27.99-5.62.98s-4.38-.34-6.29-1c-1.91-.66-3.49-1.56-4.75-2.71-1.26-1.15-2.24-2.41-2.96-3.78-.72-1.38-1.4-3.38-2.06-6l-2.56-10.3c-.77-3.09-.96-5.52-.56-7.3.39-1.78,1.43-3.14,3.1-4.08,1.67-.94,3.75-1.41,6.23-1.4,3.03.01,5.68.59,7.93,1.75,2.25,1.15,4.01,2.67,5.28,4.57,1.26,1.89,2.32,4.55,3.17,7.97l1.16,4.68ZM270.73,21.64l-.64-2.58c-.45-1.83-.85-3.01-1.17-3.54-.33-.53-.8-.8-1.4-.8-.75,0-1.16.22-1.22.67-.07.45.15,1.67.64,3.66l.64,2.58h3.16Z"/>
      <path class="cls-1" d="M303.44,1.49l1.35,5.45c-2.22,0-3.51.09-3.86.29-.35.2-.41.78-.17,1.74l.28,1.12,4.54.02,1.38,5.58h-2.56s7.14,28.81,7.14,28.81l-10.77-.03-7.15-28.83h-2.22s-1.39-5.59-1.39-5.59h2.22c-.58-2.31-.88-3.86-.91-4.64-.03-.78.19-1.47.67-2.08.48-.61,1.25-1.07,2.31-1.39,1.06-.31,2.79-.47,5.19-.46l3.95.02Z"/>
      <path class="cls-1" d="M332.07,9.36l8.71,35.21-10.94-.03-.54-2.92c-.45,1.19-1.15,2.07-2.09,2.66-.94.59-2.13.88-3.55.88-1.62,0-3.03-.29-4.23-.86s-2.18-1.32-2.92-2.26c-.74-.94-1.3-1.92-1.67-2.94-.38-1.02-.94-3.04-1.69-6.07l-5.89-23.77,10.77.04,5.94,23.98c.68,2.74,1.17,4.37,1.46,4.88.3.51.82.77,1.56.77.8,0,1.21-.26,1.23-.79.02-.53-.33-2.24-1.04-5.12l-5.87-23.71,10.76.04ZM315.1.03l1.71,6.91-6.96-.03-1.71-6.91,6.96.03ZM326.74.08l1.71,6.91-6.95-.03-1.71-6.91,6.95.03Z"/>
      <path class="cls-1" d="M346.68,9.42l.72,4.63c.74-3.31,2.57-5.06,5.48-5.24l3.06,12.39c-1.97,0-3.35.25-4.14.78-.79.53-1.18,1.26-1.15,2.21.02.95.45,3.12,1.3,6.54l3.43,13.89-10.74-.03-8.7-35.2,10.75.04Z"/>
      <path class="cls-1" d="M0,66.22h8.59c5.54.02,9.36.28,11.44.78,2.08.5,3.77,1.33,5.08,2.47,1.31,1.15,2.27,2.42,2.88,3.82.61,1.4,1.44,4.16,2.48,8.27l3.85,15.19c.99,3.89,1.46,6.49,1.42,7.81-.04,1.31-.43,2.34-1.16,3.08-.74.74-1.75,1.26-3.03,1.55-1.29.29-3.3.44-6.04.44h-14.46S0,66.22,0,66.22ZM13.37,73.67l7.25,28.55c1.65,0,2.59-.33,2.8-.98.22-.65-.04-2.42-.78-5.32l-4.28-16.86c-.5-1.97-.88-3.23-1.15-3.78-.27-.55-.66-.96-1.18-1.22-.52-.26-1.41-.39-2.66-.39Z"/>
      <path class="cls-1" d="M62.06,92.52h-14.21s1.95,7.67,1.95,7.67c.41,1.61.79,2.64,1.14,3.1.35.46.86.7,1.53.7.83,0,1.31-.31,1.44-.92.12-.62-.04-1.81-.48-3.57l-1.19-4.68h10.4s.66,2.63.66,2.63c.56,2.19.84,3.88.86,5.06.02,1.18-.32,2.43-1.01,3.77s-1.75,2.34-3.16,3.01c-1.42.67-3.32,1-5.71,1s-4.45-.33-6.39-.99c-1.94-.66-3.55-1.57-4.83-2.72-1.28-1.15-2.29-2.42-3.02-3.8-.73-1.38-1.43-3.4-2.1-6.04l-2.63-10.37c-.79-3.11-.98-5.56-.59-7.35.4-1.79,1.45-3.17,3.14-4.12,1.7-.95,3.81-1.43,6.33-1.42,3.08,0,5.77.58,8.06,1.74,2.29,1.15,4.08,2.68,5.37,4.58,1.29,1.9,2.37,4.57,3.24,8.02l1.19,4.71ZM49.59,86.73l-.66-2.6c-.47-1.84-.87-3.03-1.2-3.56-.34-.54-.81-.8-1.43-.8-.76,0-1.18.23-1.24.68-.07.46.15,1.68.66,3.68l.66,2.6h3.21Z"/>
      <path class="cls-1" d="M86.09,74.17l8.96,35.47h-11.14s-.56-2.95-.56-2.95c-.46,1.2-1.16,2.09-2.13,2.69-.96.6-2.16.9-3.61.9-1.65,0-3.08-.29-4.31-.86s-2.22-1.33-2.98-2.27c-.76-.94-1.33-1.93-1.71-2.95-.39-1.03-.97-3.06-1.74-6.11l-6.06-23.95,10.97.02,6.11,24.16c.7,2.76,1.2,4.4,1.5,4.92.3.52.83.78,1.59.78.81,0,1.23-.27,1.25-.8.02-.53-.34-2.25-1.07-5.16l-6.04-23.89,10.96.02Z"/>
      <path class="cls-1" d="M100.37,69.46l1.41,5.59h2.95s1.42,5.62,1.42,5.62h-2.95s4.79,18.97,4.79,18.97c.59,2.33,1.04,3.63,1.35,3.9.31.27,1.36.4,3.14.4l1.44,5.71h-4.41c-2.49,0-4.29-.1-5.41-.31-1.12-.2-2.17-.68-3.17-1.42-1-.74-1.72-1.58-2.16-2.54-.44-.95-1.1-3.19-1.99-6.72l-4.55-18.01h-2.36s-1.42-5.62-1.42-5.62h2.36s-1.41-5.59-1.41-5.59l10.97.02Z"/>
      <path class="cls-1" d="M132.08,85.55h-9.67s-.48-1.93-.48-1.93c-.41-1.64-.77-2.68-1.07-3.11-.3-.44-.83-.66-1.58-.66-.61,0-1.02.2-1.23.6-.21.4-.21,1,0,1.8.27,1.09.55,1.88.83,2.39.28.51.88,1.06,1.8,1.67.92.61,2.71,1.49,5.38,2.65,3.56,1.53,6,2.98,7.33,4.33,1.33,1.35,2.32,3.32,2.97,5.9.73,2.88.89,5.05.51,6.52-.39,1.47-1.37,2.6-2.94,3.39-1.57.79-3.61,1.19-6.12,1.19-2.77,0-5.26-.43-7.44-1.28-2.19-.85-3.84-2.01-4.94-3.47-1.11-1.46-2.03-3.67-2.78-6.62l-.43-1.71h9.68s.56,2.25.56,2.25c.48,1.9.91,3.14,1.3,3.71.39.57.94.85,1.66.85.77,0,1.27-.19,1.48-.57.21-.38.16-1.19-.15-2.41-.43-1.69-.89-2.75-1.39-3.18-.52-.43-2.96-1.69-7.31-3.79-3.66-1.78-6.02-3.4-7.09-4.85-1.07-1.45-1.86-3.18-2.36-5.17-.71-2.83-.86-4.92-.44-6.26.42-1.34,1.44-2.38,3.07-3.11,1.63-.73,3.64-1.09,6.04-1.09s4.48.3,6.3.9c1.82.6,3.29,1.39,4.43,2.37,1.14.98,1.91,1.89,2.31,2.73.4.84.82,2.15,1.27,3.92l.52,2.06Z"/>
      <path class="cls-1" d="M160.45,87.63h-10.27s-1.03-4.09-1.03-4.09c-.36-1.42-.72-2.39-1.08-2.89-.36-.51-.86-.76-1.49-.76s-1,.22-1.1.67c-.1.44.04,1.44.43,2.99l4.2,16.7c.32,1.26.72,2.21,1.2,2.84.48.63,1.04.95,1.67.95.74,0,1.15-.33,1.25-.99.1-.66-.09-1.9-.55-3.73l-1.06-4.21h9.71c.69,2.83,1.12,4.95,1.29,6.36.17,1.41-.07,2.86-.71,4.34-.64,1.48-1.69,2.6-3.13,3.36-1.45.76-3.37,1.13-5.78,1.13-3.07,0-5.64-.52-7.7-1.56-2.06-1.04-3.7-2.5-4.92-4.37-1.22-1.88-2.26-4.54-3.13-7.99l-2.53-10.06c-.76-3.01-1.02-5.28-.79-6.81.23-1.53,1.19-2.89,2.89-4.09,1.7-1.2,3.97-1.8,6.84-1.79s5.42.6,7.73,1.8c2.31,1.19,4.03,2.7,5.15,4.51,1.12,1.81,2.1,4.38,2.93,7.71Z"/>
      <path class="cls-1" d="M169.26,66.5l2.44,9.71c.72-.85,1.57-1.49,2.55-1.92.98-.43,2.09-.64,3.33-.64,1.9,0,3.64.48,5.22,1.45,1.58.96,2.67,2.07,3.28,3.32.61,1.25,1.33,3.54,2.16,6.86l6.1,24.36h-10.86s-6.24-24.88-6.24-24.88c-.52-2.06-.95-3.38-1.31-3.97-.35-.59-.89-.88-1.61-.88-.66,0-1.04.3-1.12.9-.08.6.1,1.8.55,3.6l6.33,25.23h-10.88s-10.84-43.16-10.84-43.16l10.89.02Z"/>
      <path class="cls-1" d="M198.46,66.55l10.79,43.09h-11.17s-10.8-43.11-10.8-43.11l11.19.02Z"/>
      <path class="cls-1" d="M233.42,92.63h-14.03s1.91,7.62,1.91,7.62c.4,1.6.77,2.62,1.12,3.08.35.46.85.69,1.51.69.82,0,1.3-.31,1.42-.92.12-.61-.03-1.79-.47-3.55l-1.16-4.65h10.27s.65,2.61.65,2.61c.54,2.18.82,3.85.84,5.02.02,1.17-.32,2.42-1.01,3.75s-1.73,2.32-3.13,2.99c-1.4.66-3.28,1-5.64,1s-4.39-.33-6.31-.98c-1.92-.66-3.51-1.56-4.77-2.7-1.26-1.14-2.25-2.4-2.97-3.78-.72-1.37-1.41-3.37-2.06-6l-2.58-10.3c-.77-3.09-.96-5.52-.57-7.31.4-1.78,1.43-3.15,3.11-4.09,1.68-.95,3.76-1.42,6.25-1.42,3.04,0,5.69.58,7.96,1.73,2.26,1.15,4.03,2.66,5.29,4.55,1.27,1.89,2.33,4.54,3.18,7.97l1.17,4.68ZM221.13,86.88l-.64-2.58c-.46-1.83-.85-3.01-1.18-3.54-.33-.53-.8-.8-1.41-.8-.75,0-1.16.23-1.23.68-.07.45.15,1.67.65,3.66l.65,2.58h3.17Z"/>
      <path class="cls-1" d="M243.23,74.38l.73,4.64c.74-3.32,2.58-5.08,5.51-5.27l3.09,12.41c-1.98,0-3.37.26-4.16.79-.8.53-1.18,1.27-1.16,2.22.02.95.46,3.13,1.31,6.55l3.47,13.92h-10.82s-8.81-35.27-8.81-35.27h10.83Z"/>
      <path class="cls-1" d="M263.04,74.41l.62,3.25c.46-1.29,1.18-2.26,2.15-2.91.97-.65,2.2-.97,3.68-.97,1.85,0,3.48.44,4.87,1.31,1.39.87,2.42,1.96,3.09,3.28.67,1.32,1.38,3.52,2.15,6.6l6.14,24.67h-10.79s-6.07-24.39-6.07-24.39c-.6-2.43-1.05-3.9-1.34-4.44s-.8-.8-1.54-.8c-.77,0-1.17.3-1.22.91-.04.61.26,2.24.93,4.9l5.93,23.81h-10.8s-8.79-35.25-8.79-35.25l11,.02Z"/>
      <path class="cls-1" d="M309.62,92.69h-13.94s1.89,7.6,1.89,7.6c.4,1.59.77,2.62,1.11,3.08.35.46.85.69,1.5.69.82,0,1.29-.3,1.41-.91.12-.61-.03-1.79-.47-3.54l-1.15-4.64h10.21s.64,2.6.64,2.6c.54,2.17.82,3.84.83,5.01.01,1.17-.32,2.41-1,3.74s-1.72,2.32-3.11,2.98c-1.39.66-3.26.99-5.6.99s-4.37-.33-6.27-.98c-1.91-.65-3.48-1.55-4.74-2.69-1.25-1.14-2.24-2.4-2.95-3.77-.71-1.37-1.4-3.36-2.05-5.98l-2.55-10.27c-.77-3.08-.95-5.51-.56-7.28.39-1.78,1.43-3.14,3.1-4.08,1.67-.94,3.74-1.41,6.21-1.41,3.02,0,5.66.58,7.91,1.72,2.25,1.14,4,2.66,5.26,4.54,1.26,1.88,2.31,4.53,3.16,7.94l1.16,4.67ZM297.4,86.95l-.64-2.57c-.45-1.82-.84-3-1.17-3.53-.33-.53-.79-.8-1.4-.8-.75,0-1.15.22-1.22.67-.07.45.15,1.67.64,3.65l.64,2.57h3.15Z"/>
      <path class="cls-1" d="M319.57,74.49l.62,3.24c.46-1.29,1.17-2.26,2.14-2.9.97-.64,2.19-.97,3.66-.96,1.85,0,3.46.44,4.85,1.3,1.39.87,2.41,1.96,3.07,3.28.66,1.32,1.37,3.51,2.14,6.58l6.1,24.62h-10.74s-6.03-24.34-6.03-24.34c-.6-2.42-1.05-3.9-1.34-4.43s-.8-.8-1.53-.8c-.76,0-1.17.3-1.21.91-.04.61.26,2.24.92,4.89l5.89,23.76h-10.75s-8.73-35.17-8.73-35.17l10.95.02Z"/>
      <path class="cls-1" d="M359.64,66.82l10.58,42.83h-10.72s-.63-2.55-.63-2.55c-.76,1.06-1.65,1.86-2.65,2.39-1,.53-2.12.79-3.36.79-1.66,0-3.22-.44-4.65-1.31-1.44-.87-2.47-1.88-3.1-3.03-.63-1.15-1.26-3.02-1.91-5.61l-4.07-16.44c-.67-2.7-.97-4.62-.9-5.75.07-1.13.61-2.12,1.64-2.98,1.03-.85,2.4-1.28,4.12-1.28,1.33,0,2.61.24,3.83.72,1.23.48,2.41,1.2,3.55,2.15l-2.46-9.96,10.73.02ZM353.01,83.37c-.32-1.29-.64-2.15-.97-2.59-.33-.44-.82-.66-1.48-.66s-1.02.2-1.14.59c-.12.4-.01,1.28.33,2.66l4.25,17.2c.35,1.43.69,2.37,1.02,2.82.32.45.79.67,1.39.68.69,0,1.09-.25,1.19-.75.11-.5-.08-1.73-.57-3.69l-4.02-16.25Z"/>
      <path class="cls-1" d="M394.14,92.74h-13.85s1.87,7.58,1.87,7.58c.39,1.59.76,2.61,1.1,3.07.34.46.84.69,1.49.69.81,0,1.28-.3,1.4-.91.12-.61-.03-1.78-.46-3.53l-1.14-4.62h10.14s.64,2.59.64,2.59c.53,2.17.81,3.83.82,4.99.01,1.16-.32,2.4-1,3.72s-1.71,2.31-3.09,2.97c-1.38.66-3.24.99-5.57.99s-4.34-.33-6.23-.98c-1.89-.65-3.46-1.55-4.7-2.68-1.24-1.14-2.22-2.39-2.93-3.75-.71-1.37-1.38-3.35-2.03-5.96l-2.53-10.24c-.76-3.07-.94-5.49-.55-7.26.39-1.77,1.42-3.13,3.08-4.07,1.66-.94,3.72-1.41,6.17-1.41,3,0,5.62.58,7.86,1.72,2.23,1.14,3.97,2.65,5.22,4.53,1.25,1.88,2.29,4.52,3.13,7.92l1.15,4.65ZM382,87.03l-.63-2.56c-.45-1.82-.83-2.99-1.16-3.52-.33-.53-.79-.79-1.39-.79-.74,0-1.15.22-1.21.67-.07.45.15,1.66.63,3.64l.63,2.56h3.13Z"/>
    </g>
  </g>
</svg>