<?xml version="1.0" encoding="UTF-8"?>
<svg id="Capa_2" data-name="Capa 2" xmlns="http://www.w3.org/2000/svg" xmlns:xlink="http://www.w3.org/1999/xlink" viewBox="0 0 150.74 30.09">
  <defs>
    <style>
      .cls-1 {
        fill: url(#Degradado_sin_nombre_9);
        stroke-width: 0px;
      }
    </style>
    <linearGradient id="Degradado_sin_nombre_9" data-name="Degradado sin nombre 9" x1="0" y1="15.05" x2="150.74" y2="15.05" gradientUnits="userSpaceOnUse">
      <stop offset="0" stop-color="#00aeef"/>
      <stop offset="1" stop-color="#262262"/>
    </linearGradient>
  </defs>
  <g id="Layer_1" data-name="Layer 1">
    <g>
      <path class="cls-1" d="M16.79,10.08l-6.84-.02-.54-2.35c-.34-1.48-.62-2.41-.84-2.78-.22-.37-.57-.56-1.06-.56-.42,0-.67.16-.75.48-.08.32.04,1.14.34,2.46l2.88,12.42c.27,1.16.52,1.93.76,2.3.24.37.58.55,1.04.55.5,0,.79-.21.87-.62.08-.42-.02-1.23-.3-2.43l-.71-3.07h-1.38s-.91-3.94-.91-3.94l8.01.02,3.23,13.89h-4.3s-1.06-1.86-1.06-1.86c-.28.8-.73,1.4-1.35,1.8-.62.4-1.41.6-2.38.6-1.15,0-2.29-.28-3.43-.83-1.13-.55-2.05-1.23-2.76-2.04-.71-.81-1.23-1.66-1.57-2.56-.34-.89-.71-2.23-1.12-4.01l-1.78-7.7C.27,7.36-.01,5.56,0,4.45c.01-1.12.55-2.14,1.63-3.07C2.7.45,4.25,0,6.29,0s3.76.42,5.27,1.23c1.51.81,2.59,1.78,3.25,2.89.66,1.11,1.23,2.73,1.72,4.84l.26,1.12Z"/>
      <path class="cls-1" d="M33.08,5.28l4.94,21.15h-6.65s-.3-1.76-.3-1.76c-.29.71-.72,1.25-1.3,1.61-.58.36-1.3.54-2.17.54-.98,0-1.84-.17-2.57-.51-.73-.34-1.31-.79-1.75-1.36s-.77-1.15-.99-1.77c-.22-.61-.54-1.83-.96-3.65l-3.32-14.29,6.55.02,3.35,14.4c.38,1.65.66,2.63.84,2.94.17.31.49.46.94.46.49,0,.74-.16.75-.48.02-.32-.18-1.35-.58-3.08l-3.32-14.24,6.53.02Z"/>
      <path class="cls-1" d="M43.16,13.49h-6.12s-.33-1.43-.33-1.43c-.38-1.63-.49-2.89-.31-3.78s.76-1.67,1.75-2.34c.99-.68,2.41-1.01,4.24-1,2.2,0,3.95.4,5.25,1.17,1.3.77,2.19,1.72,2.67,2.83.49,1.12,1.14,3.42,1.96,6.91l2.49,10.6h-6.33s-.44-1.89-.44-1.89c-.22.76-.6,1.32-1.14,1.7-.54.38-1.25.57-2.12.57-1.14,0-2.26-.32-3.36-.95-1.1-.63-1.9-2.02-2.4-4.16l-.41-1.74c-.37-1.58-.37-2.66,0-3.23.37-.57,1.47-1.24,3.29-2,1.95-.82,2.96-1.38,3.04-1.66.08-.29.02-.87-.18-1.75-.26-1.1-.51-1.82-.75-2.16s-.56-.5-.95-.5c-.44,0-.68.14-.72.42-.04.28.08,1.01.35,2.19l.52,2.21ZM45.9,16.39c-.87.75-1.32,1.38-1.37,1.89-.05.51.04,1.24.26,2.2.26,1.09.49,1.8.71,2.12s.54.48.97.48.65-.12.71-.37c.07-.25-.03-.91-.28-1.97l-1.02-4.35Z"/>
      <path class="cls-1" d="M58.65,5.36l.34,1.94c.29-.77.73-1.35,1.32-1.73.59-.38,1.33-.58,2.21-.57,1.11,0,2.08.27,2.91.79.83.52,1.43,1.17,1.82,1.96.39.79.8,2.1,1.23,3.94l3.48,14.77h-6.48s-3.43-14.61-3.43-14.61c-.34-1.45-.6-2.33-.77-2.65-.17-.32-.48-.48-.91-.48-.46,0-.71.18-.74.55-.03.36.14,1.34.51,2.93l3.35,14.26h-6.49s-4.95-21.1-4.95-21.1l6.6.02Z"/>
      <path class="cls-1" d="M83.89,5.44l3.83,16.18c.52,2.19.8,3.6.85,4.24.05.64-.15,1.32-.6,2.03-.45.71-1.18,1.26-2.19,1.63-1.01.38-2.36.56-4.03.56-2.06,0-3.79-.35-5.21-1.04-1.41-.69-2.38-2.06-2.9-4.09h6.27c.22.94.67,1.4,1.35,1.4.49,0,.78-.14.87-.43s.03-.88-.18-1.79l-.38-1.59c-.44.5-.93.87-1.48,1.13-.55.25-1.17.38-1.84.38-1.16,0-2.18-.23-3.04-.7-.86-.47-1.52-1.08-1.98-1.84-.46-.76-.85-1.83-1.18-3.23l-1.8-7.65c-.47-2-.45-3.43.07-4.31.52-.87,1.52-1.31,3-1.3.81,0,1.59.17,2.33.5.74.33,1.45.82,2.13,1.48l.09-1.59,6,.02ZM78.75,11c-.23-.96-.43-1.57-.6-1.84-.17-.26-.45-.4-.84-.4s-.6.15-.68.45c-.08.3-.02.89.19,1.78l1.67,7.07c.22.94.42,1.55.61,1.83.18.28.46.42.83.42.43,0,.66-.17.71-.51.05-.34-.07-1.1-.35-2.3l-1.54-6.51Z"/>
      <path class="cls-1" d="M96.2,5.48l1.1,4.64-1.86,12.12h4.74s1,4.22,1,4.22h-10.98s-1.04-4.41-1.04-4.41l1.91-12.39h-4.35s-1-4.22-1-4.22l10.47.03Z"/>
      <path class="cls-1" d="M102.95.9l1.37,5.74c.43-.5.93-.88,1.51-1.13.58-.25,1.23-.38,1.96-.37,1.12,0,2.14.29,3.06.86.92.57,1.56,1.23,1.91,1.97.35.74.76,2.09,1.23,4.06l3.45,14.44h-6.41s-3.51-14.76-3.51-14.76c-.29-1.22-.54-2-.74-2.35-.2-.35-.52-.52-.94-.52-.39,0-.61.18-.67.53-.05.36.05,1.07.3,2.13l3.56,14.96h-6.42S96.54.88,96.54.88l6.41.02Z"/>
      <path class="cls-1" d="M130.84,12.92l1.23,5.12c.45,1.88.69,3.26.71,4.14.02.88-.19,1.7-.63,2.46-.44.76-1.1,1.32-1.99,1.69s-1.96.54-3.23.54c-1.41,0-2.65-.16-3.7-.47s-1.93-.78-2.62-1.41c-.69-.63-1.26-1.38-1.71-2.27-.44-.89-.88-2.22-1.3-4l-1.28-5.36c-.46-1.94-.62-3.46-.45-4.55.16-1.09.71-1.97,1.65-2.62.94-.66,2.26-.98,3.97-.98,1.43,0,2.71.22,3.84.65,1.13.43,2.05.98,2.77,1.67.72.68,1.27,1.39,1.65,2.11.38.72.74,1.83,1.1,3.31ZM124.08,11.33c-.26-1.07-.48-1.75-.66-2.02-.18-.28-.46-.42-.84-.42s-.6.14-.66.42c-.06.28.04.95.29,2.02l2.26,9.44c.24.99.45,1.63.65,1.93.2.3.48.45.85.45s.6-.14.65-.41c.06-.27-.02-.86-.24-1.77l-2.31-9.64Z"/>
      <path class="cls-1" d="M145.72,5.64l5.02,20.85h-6.46s-.31-1.74-.31-1.74c-.27.7-.69,1.23-1.25,1.58-.56.35-1.26.53-2.1.53-.96,0-1.79-.17-2.5-.51-.71-.34-1.28-.78-1.72-1.34s-.76-1.14-.98-1.74c-.22-.6-.54-1.8-.97-3.6l-3.38-14.08,6.36.02,3.41,14.2c.39,1.63.67,2.59.85,2.9.17.3.48.46.92.46.47,0,.71-.16.73-.47.01-.31-.19-1.33-.6-3.04l-3.37-14.04,6.35.02Z"/>
    </g>
  </g>
</svg>