<?xml version="1.0" encoding="UTF-8"?>
<svg id="Capa_2" data-name="Capa 2" xmlns="http://www.w3.org/2000/svg" xmlns:xlink="http://www.w3.org/1999/xlink" viewBox="0 0 283.46 99.21">
  <defs>
    <style>
      .cls-1 {
        fill: none;
      }

      .cls-1, .cls-2 {
        stroke-width: 0px;
      }

      .cls-2 {
        fill: url(#Degradado_sin_nombre_9);
      }
    </style>
    <linearGradient id="Degradado_sin_nombre_9" data-name="Degradado sin nombre 9" x1="13.48" y1="49.61" x2="269.98" y2="49.61" gradientUnits="userSpaceOnUse">
      <stop offset="0" stop-color="#00aeef"/>
      <stop offset="1" stop-color="#262262"/>
    </linearGradient>
  </defs>
  <g id="Layer_1" data-name="Layer 1">
    <g>
      <rect class="cls-1" width="283.46" height="99.21"/>
      <g>
        <path class="cls-2" d="M41.57,41.09h-11.44s-.93-3.99-.93-3.99c-.58-2.52-1.06-4.09-1.42-4.72s-.95-.95-1.77-.95c-.71,0-1.12.27-1.25.81-.13.54.07,1.94.59,4.18l4.89,21.14c.46,1.98.89,3.29,1.29,3.91.4.63.98.94,1.74.94.83,0,1.32-.36,1.45-1.06.14-.71-.04-2.09-.51-4.15l-1.21-5.23h-2.31s-1.55-6.7-1.55-6.7h13.4s5.52,23.69,5.52,23.69h-7.21s-1.8-3.17-1.8-3.17c-.46,1.37-1.21,2.39-2.24,3.07-1.03.68-2.36,1.02-3.98,1.02-1.93,0-3.84-.47-5.74-1.41-1.9-.94-3.44-2.1-4.63-3.48-1.19-1.38-2.07-2.83-2.64-4.35s-1.2-3.8-1.9-6.83l-3.02-13.09c-.97-4.2-1.44-7.25-1.43-9.15.01-1.9.91-3.64,2.69-5.22,1.78-1.58,4.37-2.37,7.77-2.37,3.35,0,6.28.69,8.81,2.06,2.53,1.37,4.34,3,5.45,4.89,1.11,1.89,2.08,4.64,2.92,8.24l.44,1.9Z"/>
        <path class="cls-2" d="M68.86,32.83l8.52,36.13h-11.2s-.52-3.01-.52-3.01c-.48,1.22-1.2,2.14-2.17,2.75-.97.61-2.19.92-3.64.92-1.65,0-3.09-.29-4.32-.87-1.23-.58-2.21-1.36-2.95-2.32-.74-.96-1.3-1.97-1.67-3.02-.37-1.05-.92-3.12-1.64-6.23l-5.68-24.34h10.97s5.76,24.56,5.76,24.56c.66,2.82,1.14,4.49,1.43,5.02.3.53.83.79,1.59.79.82,0,1.24-.27,1.26-.82.03-.55-.31-2.3-1-5.26l-5.7-24.29h10.97Z"/>
        <path class="cls-2" d="M85.9,46.8h-10.3s-.57-2.42-.57-2.42c-.66-2.79-.85-4.94-.56-6.45.29-1.51,1.26-2.85,2.92-4,1.66-1.16,4.04-1.74,7.13-1.74,3.71,0,6.66.66,8.85,1.97,2.19,1.31,3.71,2.92,4.55,4.83s1.96,5.85,3.39,11.82l4.33,18.16h-10.7s-.77-3.23-.77-3.23c-.36,1.29-1,2.27-1.91,2.91-.91.65-2.1.97-3.57.97-1.93,0-3.82-.54-5.68-1.63-1.86-1.08-3.23-3.45-4.09-7.11l-.7-2.97c-.64-2.71-.65-4.55-.03-5.53.62-.98,2.46-2.12,5.52-3.43,3.27-1.41,4.97-2.37,5.11-2.86.14-.49.03-1.49-.33-2.99-.45-1.88-.88-3.11-1.3-3.68-.42-.57-.95-.86-1.6-.86-.74,0-1.15.24-1.21.72-.07.48.14,1.73.61,3.74l.9,3.78ZM90.56,51.75c-1.45,1.29-2.22,2.37-2.29,3.24-.07.87.08,2.13.47,3.76.44,1.87.85,3.08,1.23,3.63.37.55.92.82,1.65.82s1.09-.21,1.2-.64c.11-.43-.05-1.55-.49-3.37l-1.77-7.44Z"/>
        <path class="cls-2" d="M111.96,32.84l.61,3.32c.48-1.32,1.21-2.32,2.2-2.98.99-.66,2.24-.99,3.74-.99,1.88,0,3.53.44,4.93,1.33s2.45,2,3.12,3.35c.67,1.35,1.38,3.6,2.14,6.75l6.11,25.34h-11s-6.01-25.05-6.01-25.05c-.6-2.48-1.04-3.99-1.33-4.54s-.81-.81-1.55-.81c-.78,0-1.19.31-1.24.94-.05.62.25,2.3.9,5.01l5.86,24.45h-11s-8.63-36.13-8.63-36.13h11.15Z"/>
        <path class="cls-2" d="M154.78,32.84l6.78,27.8c.92,3.76,1.43,6.2,1.52,7.3.1,1.1-.23,2.27-.99,3.5-.75,1.23-1.99,2.17-3.71,2.82-1.72.65-4.01.97-6.86.97-3.51,0-6.47-.6-8.88-1.79s-4.08-3.54-5-7.04h10.67c.39,1.6,1.16,2.4,2.33,2.4.83,0,1.33-.25,1.48-.74.15-.49.04-1.52-.34-3.09l-.66-2.73c-.74.86-1.57,1.51-2.51,1.94-.94.44-1.98.66-3.12.66-1.98,0-3.7-.4-5.18-1.2-1.47-.8-2.6-1.85-3.39-3.15-.79-1.3-1.47-3.15-2.05-5.55l-3.17-13.12c-.83-3.42-.81-5.88.06-7.39.87-1.5,2.56-2.25,5.07-2.25,1.37,0,2.7.28,3.96.84,1.27.56,2.48,1.41,3.64,2.53l.13-2.72h10.2ZM146.11,42.4c-.4-1.65-.75-2.7-1.05-3.15-.3-.45-.78-.68-1.43-.68s-1.02.26-1.16.77c-.14.52-.02,1.53.35,3.06l2.94,12.14c.39,1.62.75,2.67,1.06,3.15.32.48.79.72,1.43.72.73,0,1.13-.29,1.2-.87.08-.58-.13-1.9-.63-3.95l-2.72-11.18Z"/>
        <path class="cls-2" d="M175.76,32.84l1.96,7.98-2.97,20.88h8.11s1.79,7.26,1.79,7.26h-18.76s-1.85-7.59-1.85-7.59l3.06-21.31h-7.42s-1.76-7.22-1.76-7.22h17.85Z"/>
        <path class="cls-2" d="M187.2,24.93l2.44,9.88c.73-.87,1.58-1.52,2.57-1.96.99-.43,2.1-.65,3.35-.65,1.92,0,3.67.49,5.26,1.47,1.59.98,2.69,2.1,3.31,3.38.62,1.28,1.34,3.61,2.19,6.99l6.2,24.93h-11s-6.3-25.45-6.3-25.45c-.52-2.1-.96-3.45-1.31-4.05-.36-.6-.9-.9-1.62-.9-.67,0-1.05.31-1.13.92-.08.62.1,1.84.55,3.67l6.38,25.8h-11s-10.84-44.04-10.84-44.04h10.95Z"/>
        <path class="cls-2" d="M235.29,45.5l2.22,8.84c.82,3.25,1.25,5.64,1.31,7.15.05,1.52-.29,2.94-1.03,4.26-.74,1.32-1.87,2.29-3.39,2.92-1.52.63-3.37.94-5.55.94-2.43,0-4.56-.27-6.38-.81-1.82-.54-3.33-1.35-4.54-2.43-1.2-1.08-2.2-2.39-2.98-3.93-.78-1.54-1.55-3.84-2.32-6.91l-2.3-9.25c-.83-3.35-1.12-5.97-.87-7.85.25-1.88,1.18-3.39,2.78-4.53,1.6-1.14,3.86-1.71,6.79-1.71,2.46,0,4.66.37,6.61,1.1,1.95.73,3.55,1.69,4.8,2.86,1.25,1.18,2.21,2.39,2.88,3.64.67,1.25,1.32,3.15,1.96,5.71ZM223.63,42.78c-.46-1.85-.85-3.01-1.17-3.49-.32-.48-.8-.72-1.46-.72s-1.03.24-1.12.72c-.1.48.08,1.64.55,3.49l4.08,16.3c.43,1.71.81,2.82,1.16,3.34.35.52.84.78,1.47.78s1.02-.24,1.12-.71c.09-.47-.06-1.49-.45-3.05l-4.17-16.66Z"/>
        <path class="cls-2" d="M260.81,32.85l9.17,36.12h-11.19s-.57-3.01-.57-3.01c-.45,1.22-1.16,2.14-2.12,2.75-.96.61-2.17.92-3.62.92-1.65,0-3.1-.29-4.33-.87-1.24-.58-2.23-1.36-2.99-2.32-.76-.96-1.34-1.97-1.72-3.01-.39-1.05-.98-3.12-1.76-6.23l-6.12-24.33h10.96s6.2,24.55,6.2,24.55c.71,2.82,1.22,4.49,1.53,5.02.31.53.84.79,1.6.79.82,0,1.23-.27,1.25-.82.02-.55-.35-2.3-1.1-5.26l-6.14-24.28h10.96Z"/>
      </g>
    </g>
  </g>
</svg>