<?xml version="1.0" encoding="UTF-8"?>
<svg id="Capa_2" data-name="Capa 2" xmlns="http://www.w3.org/2000/svg" xmlns:xlink="http://www.w3.org/1999/xlink" viewBox="0 0 509.76 114.84">
  <defs>
    <style>
      .cls-1 {
        fill: url(#Degradado_sin_nombre_9);
        stroke-width: 0px;
      }
    </style>
    <linearGradient id="Degradado_sin_nombre_9" data-name="Degradado sin nombre 9" x1="0" y1="57.42" x2="509.76" y2="57.42" gradientUnits="userSpaceOnUse">
      <stop offset="0" stop-color="#00aeef"/>
      <stop offset="1" stop-color="#262262"/>
    </linearGradient>
  </defs>
  <g id="Layer_1" data-name="Layer 1">
    <g>
      <path class="cls-1" d="M50.96,86.18c-1.36,13.81-12.46,24.14-26.24,24.14-8.47,0-15.66-3.78-20.53-10.12l-3.25,3.02c5.62,7.09,14.18,11.62,23.77,11.62,16.55,0,30.04-13.49,30.64-30.36l.02-2.15V0h-16.87l-.12,67.2.08,10.89v4.77c-.72,7.84-6.25,13.11-14.06,13.11-4.78,0-8.81-2.4-11.56-5.98l-3.18,3.05c3.39,4.52,8.71,7.42,14.69,7.42,9.63,0,17.55-7.55,18.47-17.21l.04-1.48.1-50.66V4.51s7.82,0,7.82,0l.19,78.99v2.69Z"/>
      <polygon class="cls-1" points="15.66 93.26 2.97 105.26 0 101.95 12.69 89.94 15.66 93.26"/>
      <path class="cls-1" d="M95.78,48.5c-5.9,5.17-10.98,14.7-10.98,23.31,0,15.57,13.71,29.58,28.82,29.58s28.8-14.08,28.8-29.65-13.4-29.65-28.51-29.65c-6.77,0-14.63,3.27-19.41,7.46l1.42,2.46,1.35,1.04c4.33-4.01,10.06-6.44,16.34-6.44,13.51,0,24.47,11.29,24.47,25.21s-10.96,25.21-24.47,25.21-24.47-11.29-24.47-25.21c0-7.45,3.14-14.15,8.13-18.76"/>
      <path class="cls-1" d="M87.65,38.81c-8.92,7.81-15.41,20.12-15.41,33.11,0,23.51,18.53,42.57,41.39,42.57s41.39-19.06,41.39-42.57-18.53-42.57-41.39-42.57c-10.23,0-20.01,4.19-27.23,10.51l.48,2.15,2.04,1.57c6.55-6.05,15.21-9.73,24.71-9.73,20.44,0,37,17.04,37,38.06s-16.57,38.06-37,38.06-37-17.04-37-38.06c0-11.25,4.75-21.36,12.29-28.33"/>
      <line class="cls-1" x1="98.05" y1="36.34" x2="100.38" y2="38.29"/>
      <g>
        <polygon class="cls-1" points="398.78 35.07 360.85 112.54 354.37 114.22 396.66 29.35 398.78 35.07"/>
        <polygon class="cls-1" points="419.5 86.05 394.19 35.11 396.7 29.35 424.82 86.05 419.5 86.05"/>
        <polygon class="cls-1" points="398.54 63.05 373.46 114.22 368.07 114.22 396.43 57.34 398.54 63.05"/>
        <polygon class="cls-1" points="405.36 86.05 393.95 63.1 396.46 57.34 410.77 86.05 405.36 86.05"/>
        <polygon class="cls-1" points="371 114.22 354.37 114.22 357.49 109.71 372.58 109.71 371 114.22"/>
        <polygon class="cls-1" points="422.44 86.05 405.81 86.05 407.33 81.54 421.32 81.54 422.44 86.05"/>
        <polygon class="cls-1" points="433.55 114.22 423.85 94.73 429.16 94.73 438.82 114.22 433.55 114.22"/>
        <polygon class="cls-1" points="419.33 114.22 409.5 94.73 415.13 94.73 424.82 114.22 419.33 114.22"/>
        <polygon class="cls-1" points="428.49 99.25 411.86 99.25 413.37 94.73 427.36 94.73 428.49 99.25"/>
        <polygon class="cls-1" points="437.14 114.22 420.51 114.22 422.02 109.71 436.01 109.71 437.14 114.22"/>
      </g>
      <g>
        <polyline class="cls-1" points="181.98 109.71 212.57 109.71 212.57 114.22 177.6 114.22 177.6 109.71 178.12 110.43"/>
        <g>
          <polygon class="cls-1" points="190.15 68.44 190.15 49.89 194.53 49.89 194.53 67.72 190.15 68.44"/>
          <g>
            <polygon class="cls-1" points="213.73 68.44 190.15 68.44 190.85 63.93 213.73 63.93 213.73 68.44"/>
            <polygon class="cls-1" points="213.73 78.57 190.15 78.92 190.15 74.06 213.73 74.06 213.73 78.57"/>
            <polygon class="cls-1" points="213.73 101.32 190.15 101.32 190.85 96.81 213.73 96.81 213.73 101.32"/>
            <polygon class="cls-1" points="181.98 49.89 181.98 113.45 177.6 113.52 177.6 49.89 181.98 49.89"/>
            <polygon class="cls-1" points="190.15 101.32 190.15 74.78 194.53 74.78 194.53 100.6 190.15 101.32"/>
            <polygon class="cls-1" points="192.04 54.4 177.81 54.4 177.6 49.89 191.83 49.89 192.04 54.4"/>
            <path class="cls-1" d="M214.01,63.93c3.31-.14,4.71-3.88,4.71-8.47s-1.67-8.35-4.99-8.47l-.25-4.51h.55c5.04.22,9.08,5.91,9.08,12.9s-4.29,12.92-9.38,13.06h-.42l.06-4.51h.64Z"/>
            <path class="cls-1" d="M213.98,96.81c3.31-.15,4.7-4.3,4.7-9.11s-1.62-9-4.95-9.12l-.29-4.51h.55c5.04.23,9.08,6.21,9.08,13.55s-4.29,13.57-9.38,13.72h-.42v-4.52h.72Z"/>
            <g>
              <polygon class="cls-1" points="213.67 34.13 173.28 34.13 179.7 42.49 177.6 47 164.2 29.62 213.67 29.62 213.67 34.13"/>
              <polygon class="cls-1" points="213.73 47 177.6 47 178.02 42.49 213.73 42.49 213.73 47"/>
              <path class="cls-1" d="M213.68,34.13c9.31,0,16.85,8.93,16.85,19.95,0,7.74-3.73,14.46-9.17,17.77l-.16.09c5.67,3.29,9.55,10.03,9.55,17.81,0,11.02-7.79,19.95-17.41,19.95h-1.44l-.28,4.51,1.35.02c12.24,0,22.16-10.96,22.16-24.49,0-6.94-2.61-13.2-6.81-17.66l-.28-.31c4.19-4.46,6.87-10.76,6.87-17.69,0-12.96-9.12-23.58-20.65-24.43l-.94-.06.35,4.52Z"/>
            </g>
          </g>
        </g>
      </g>
      <g>
        <polyline class="cls-1" points="456.6 109.69 487.2 109.69 487.2 114.2 452.22 114.2 452.22 109.69 452.74 110.41"/>
        <g>
          <polygon class="cls-1" points="464.77 68.42 464.77 49.87 469.16 49.87 469.16 67.7 464.77 68.42"/>
          <g>
            <polygon class="cls-1" points="488.35 68.42 464.77 68.42 465.47 63.91 488.35 63.91 488.35 68.42"/>
            <polygon class="cls-1" points="488.35 78.55 464.77 78.9 464.77 74.04 488.35 74.04 488.35 78.55"/>
            <polygon class="cls-1" points="488.35 101.3 464.77 101.3 465.47 96.79 488.35 96.79 488.35 101.3"/>
            <polygon class="cls-1" points="456.6 49.87 456.6 113.43 452.22 113.5 452.22 49.87 456.6 49.87"/>
            <polygon class="cls-1" points="464.77 101.3 464.77 74.76 469.16 74.76 469.16 100.58 464.77 101.3"/>
            <polygon class="cls-1" points="466.67 54.38 452.44 54.38 452.22 49.87 466.45 49.87 466.67 54.38"/>
            <path class="cls-1" d="M488.63,63.91c3.31-.14,4.71-3.88,4.71-8.46s-1.67-8.35-5-8.46l-.25-4.51h.55c5.04.22,9.08,5.91,9.08,12.9s-4.29,12.92-9.38,13.06h-.42l.06-4.51h.64Z"/>
            <path class="cls-1" d="M488.6,96.79c3.31-.15,4.7-4.3,4.7-9.11s-1.62-9-4.95-9.12l-.29-4.51h.55c5.04.24,9.08,6.21,9.08,13.55s-4.29,13.57-9.38,13.72h-.42v-4.52h.72Z"/>
            <g>
              <polygon class="cls-1" points="488.29 34.11 447.9 34.11 454.33 42.47 452.22 46.98 438.82 29.6 488.29 29.6 488.29 34.11"/>
              <polygon class="cls-1" points="488.35 46.98 452.22 46.98 452.64 42.47 488.35 42.47 488.35 46.98"/>
              <path class="cls-1" d="M488.31,34.11c9.3,0,16.85,8.93,16.85,19.95,0,7.74-3.73,14.46-9.17,17.77l-.16.09c5.67,3.29,9.55,10.03,9.55,17.81,0,11.02-7.79,19.95-17.41,19.95h-1.44l-.28,4.51,1.35.02c12.24,0,22.16-10.96,22.16-24.49,0-6.94-2.61-13.2-6.81-17.66l-.28-.31c4.19-4.46,6.87-10.76,6.87-17.7,0-12.96-9.12-23.57-20.65-24.43l-.94-.06.35,4.52Z"/>
            </g>
          </g>
        </g>
      </g>
      <polygon class="cls-1" points="280.54 0 280.54 93.47 276.15 97.38 276.15 0 280.54 0"/>
      <polygon class="cls-1" points="293.05 0 293.05 83.59 288.66 83.96 288.66 0 293.05 0"/>
      <rect class="cls-1" x="278.35" width="12.91" height="4.51"/>
      <polygon class="cls-1" points="293.05 83.59 276.15 102.72 276.15 96.03 289.8 80.56 293.05 83.59"/>
      <polygon class="cls-1" points="341.91 114.22 280.31 114.22 282.72 109.71 341.91 109.71 341.91 114.22"/>
      <rect class="cls-1" x="293.05" y="96.85" width="48.86" height="4.51"/>
      <rect class="cls-1" x="337.53" y="97.97" width="4.38" height="15.52"/>
      <polygon class="cls-1" points="296.31 99.88 284.03 114.22 277.74 114.22 293.06 96.85 296.31 99.88"/>
    </g>
  </g>
</svg>