<?xml version="1.0" encoding="UTF-8"?>
<svg id="Capa_2" data-name="Capa 2" xmlns="http://www.w3.org/2000/svg" xmlns:xlink="http://www.w3.org/1999/xlink" viewBox="0 0 195.01 38.2">
  <defs>
    <style>
      .cls-1 {
        fill: url(#Degradado_sin_nombre_11);
        stroke-width: 0px;
      }
    </style>
    <linearGradient id="Degradado_sin_nombre_11" data-name="Degradado sin nombre 11" x1="0" y1="19.1" x2="195.01" y2="19.1" gradientUnits="userSpaceOnUse">
      <stop offset="0" stop-color="#00aeef"/>
      <stop offset="1" stop-color="#262262"/>
    </linearGradient>
  </defs>
  <g id="Layer_1" data-name="Layer 1">
    <g>
      <path class="cls-1" d="M0,0h8.76c2.37,0,4.23.19,5.59.56,1.35.37,2.43.91,3.22,1.61.79.7,1.41,1.55,1.85,2.55.44,1,.89,2.55,1.34,4.64l.63,2.91c.46,2.14.57,3.69.34,4.67-.23.98-.88,1.73-1.94,2.25-1.07.52-2.55.79-4.45.79h-2.34l2.89,13.48H7.18L0,0ZM9.93,5.72l1.83,8.52c.25.01.47.02.65.02.8,0,1.31-.2,1.54-.59.23-.39.21-1.21-.06-2.45l-.59-2.75c-.25-1.14-.58-1.89-1.02-2.23-.43-.34-1.21-.52-2.34-.52Z"/>
      <path class="cls-1" d="M30.64,6.03l.44,3.61c.66-2.58,2.12-3.95,4.39-4.1l2.08,9.65c-1.53,0-2.61.21-3.24.62-.63.41-.94.99-.95,1.73,0,.74.28,2.44.85,5.1l2.33,10.83h-8.35l-5.89-27.43h8.35Z"/>
      <path class="cls-1" d="M58.4,15.67l1.45,6.72c.53,2.47.8,4.28.8,5.43s-.3,2.23-.9,3.23c-.6,1-1.48,1.74-2.66,2.21-1.17.48-2.59.71-4.24.71-1.85,0-3.45-.2-4.82-.61s-2.5-1.02-3.38-1.84c-.89-.82-1.61-1.81-2.16-2.98-.55-1.16-1.08-2.91-1.58-5.24l-1.51-7.03c-.55-2.55-.7-4.54-.46-5.97.24-1.43.99-2.58,2.23-3.45,1.25-.87,2.99-1.3,5.22-1.3,1.87,0,3.54.28,5.01.84,1.46.56,2.66,1.28,3.58,2.18.92.9,1.62,1.82,2.09,2.77.47.95.92,2.4,1.34,4.34ZM49.61,13.6c-.3-1.41-.57-2.29-.8-2.66-.23-.36-.59-.55-1.09-.55s-.79.18-.87.55c-.09.37.02,1.25.32,2.66l2.66,12.38c.28,1.3.54,2.14.79,2.53.25.39.62.59,1.1.59s.78-.18.87-.54c.08-.36,0-1.13-.26-2.32l-2.72-12.65Z"/>
      <path class="cls-1" d="M78.05,6.03l4.55,21.13c.61,2.85.95,4.7,1,5.53.05.83-.23,1.72-.83,2.65-.6.93-1.56,1.64-2.88,2.13-1.32.49-3.06.73-5.23.73-2.66,0-4.89-.45-6.7-1.35s-3.02-2.68-3.65-5.32h8.1c.26,1.21.83,1.82,1.71,1.82.63,0,1.01-.19,1.14-.56.13-.37.06-1.15-.19-2.34l-.45-2.07c-.58.65-1.23,1.14-1.95,1.47-.72.33-1.52.5-2.38.5-1.5,0-2.8-.3-3.91-.91-1.1-.61-1.94-1.4-2.51-2.39-.57-.99-1.05-2.39-1.44-4.21l-2.14-9.96c-.56-2.6-.5-4.48.2-5.62.69-1.14,1.99-1.72,3.91-1.72,1.05,0,2.05.21,3,.64.95.43,1.86,1.07,2.72,1.93l.15-2.07h7.77ZM71.25,13.31c-.27-1.25-.51-2.05-.73-2.4s-.58-.52-1.07-.52-.78.2-.9.59c-.12.39-.05,1.17.2,2.33l1.99,9.22c.26,1.23.51,2.02.74,2.39.23.37.59.55,1.07.55.55,0,.86-.22.93-.66.07-.44-.06-1.44-.4-3l-1.83-8.5Z"/>
      <path class="cls-1" d="M89.37,6.03l.45,3.61c.66-2.58,2.12-3.95,4.39-4.1l2.08,9.65c-1.53,0-2.61.21-3.24.62-.63.41-.94.99-.95,1.73,0,.74.28,2.44.85,5.1l2.34,10.83h-8.35l-5.91-27.43h8.35Z"/>
      <path class="cls-1" d="M105.92,16.66h-7.83l-.4-1.84c-.46-2.12-.57-3.76-.32-4.91.24-1.15,1-2.17,2.29-3.05,1.28-.88,3.1-1.32,5.46-1.32,2.82,0,5.06.5,6.71,1.5,1.65,1,2.77,2.23,3.38,3.68.6,1.45,1.39,4.45,2.37,8.98l2.97,13.77h-8.12l-.53-2.44c-.3.98-.8,1.72-1.5,2.21-.7.49-1.61.74-2.72.74-1.46,0-2.89-.41-4.29-1.23s-2.39-2.62-2.99-5.39l-.49-2.25c-.44-2.05-.42-3.45.07-4.2.49-.74,1.91-1.61,4.25-2.61,2.51-1.07,3.82-1.8,3.93-2.17.11-.37.05-1.13-.2-2.27-.31-1.43-.62-2.37-.92-2.8-.31-.43-.71-.65-1.2-.65-.57,0-.88.18-.94.55-.06.37.08,1.31.41,2.84l.62,2.87ZM109.38,20.42c-1.13.98-1.72,1.8-1.79,2.46s.03,1.61.3,2.85c.31,1.42.6,2.34.87,2.75.28.41.69.62,1.24.62s.83-.16.92-.49c.09-.32-.02-1.18-.31-2.55l-1.22-5.64Z"/>
      <path class="cls-1" d="M125.74,6.03l.42,2.61c.42-1.03,1.03-1.81,1.81-2.33.78-.52,1.75-.78,2.89-.78,2.23,0,4.21,1.04,5.94,3.11.48-1.03,1.1-1.81,1.87-2.33.77-.52,1.69-.78,2.77-.78,1.42,0,2.67.34,3.75,1.03s1.86,1.53,2.33,2.53c.48,1,.96,2.62,1.44,4.87l4.21,19.5h-8.1l-3.86-17.88c-.51-2.34-.9-3.79-1.18-4.35-.28-.56-.71-.84-1.29-.84s-.92.28-.97.83.17,2,.68,4.36l3.86,17.88h-8.1l-3.76-17.43c-.58-2.69-.99-4.3-1.24-4.84-.25-.54-.67-.81-1.26-.81-.37,0-.66.14-.86.42-.2.28-.27.63-.21,1.03.06.41.23,1.27.52,2.59l4.11,19.02h-8.1l-5.92-27.43h8.25Z"/>
      <path class="cls-1" d="M158.38,6.03l.42,2.61c.42-1.03,1.03-1.81,1.81-2.33.78-.52,1.75-.78,2.89-.78,2.23,0,4.21,1.04,5.94,3.11.48-1.03,1.1-1.81,1.87-2.33.77-.52,1.69-.78,2.77-.78,1.42,0,2.67.34,3.75,1.03s1.86,1.53,2.34,2.53c.48,1,.96,2.62,1.45,4.87l4.22,19.5h-8.1l-3.87-17.88c-.51-2.34-.9-3.79-1.18-4.35-.28-.56-.71-.84-1.29-.84s-.92.28-.97.83.18,2,.69,4.36l3.87,17.88h-8.1l-3.77-17.43c-.58-2.69-1-4.3-1.24-4.84-.25-.54-.67-.81-1.26-.81-.37,0-.66.14-.86.42-.2.28-.27.63-.21,1.03.06.41.23,1.27.52,2.59l4.11,19.02h-8.1l-5.93-27.43h8.25Z"/>
      <path class="cls-1" d="M190.29,11.68l1.47,6.8h-6.3l-1.47-6.8h6.3ZM193.53,26.64l1.48,6.82h-6.3l-1.48-6.82h6.3Z"/>
    </g>
  </g>
</svg>