<?xml version="1.0" encoding="UTF-8"?>
<svg id="Capa_2" data-name="Capa 2" xmlns="http://www.w3.org/2000/svg" xmlns:xlink="http://www.w3.org/1999/xlink" viewBox="0 0 283.46 99.21">
  <defs>
    <style>
      .cls-1 {
        fill: none;
      }

      .cls-1, .cls-2 {
        stroke-width: 0px;
      }

      .cls-2 {
        fill: url(#Degradado_sin_nombre_11);
      }
    </style>
    <linearGradient id="Degradado_sin_nombre_11" data-name="Degradado sin nombre 11" x1="34.72" y1="49.61" x2="248.75" y2="49.61" gradientUnits="userSpaceOnUse">
      <stop offset="0" stop-color="#00aeef"/>
      <stop offset="1" stop-color="#262262"/>
    </linearGradient>
  </defs>
  <g id="Layer_1" data-name="Layer 1">
    <g>
      <rect class="cls-1" width="283.46" height="99.21"/>
      <g>
        <path class="cls-2" d="M34.72,28.64h9.62c2.6,0,4.64.2,6.13.61,1.49.41,2.66,1,3.53,1.77.87.77,1.55,1.7,2.03,2.8.49,1.1.97,2.79,1.47,5.09l.69,3.2c.5,2.34.63,4.05.38,5.13-.25,1.07-.96,1.9-2.13,2.47-1.17.58-2.8.86-4.88.86h-2.56l3.18,14.8h-9.55l-7.88-36.73ZM45.61,34.92l2.01,9.35c.28.02.51.02.71.02.88,0,1.44-.22,1.69-.65.25-.43.23-1.33-.07-2.69l-.65-3.02c-.27-1.26-.64-2.07-1.12-2.45-.47-.38-1.33-.57-2.57-.57Z"/>
        <path class="cls-2" d="M68.35,35.26l.49,3.96c.72-2.83,2.33-4.34,4.82-4.5l2.28,10.59c-1.68,0-2.86.23-3.55.68-.69.45-1.04,1.09-1.04,1.89,0,.81.3,2.67.93,5.59l2.56,11.89h-9.17l-6.47-30.11h9.16Z"/>
        <path class="cls-2" d="M98.82,45.84l1.59,7.37c.58,2.71.87,4.69.87,5.96s-.33,2.44-.99,3.54c-.66,1.1-1.63,1.91-2.91,2.43-1.29.52-2.84.78-4.65.78-2.03,0-3.79-.22-5.29-.67s-2.74-1.12-3.71-2.02c-.97-.9-1.76-1.99-2.37-3.27-.61-1.28-1.19-3.2-1.74-5.75l-1.66-7.71c-.6-2.8-.77-4.98-.5-6.56.27-1.57,1.08-2.84,2.45-3.79,1.37-.95,3.28-1.43,5.73-1.43,2.06,0,3.89.31,5.49.92,1.61.61,2.92,1.41,3.93,2.39,1.01.98,1.78,2,2.3,3.04.52,1.04,1.01,2.63,1.47,4.76ZM89.16,43.57c-.33-1.54-.62-2.51-.88-2.92-.25-.4-.65-.6-1.2-.6s-.86.2-.96.6c-.1.4.02,1.37.35,2.92l2.92,13.59c.31,1.42.6,2.35.87,2.78.27.43.68.65,1.21.65s.86-.2.95-.59c.09-.39,0-1.24-.29-2.54l-2.99-13.89Z"/>
        <path class="cls-2" d="M120.38,35.26l5,23.19c.67,3.13,1.04,5.16,1.09,6.07.05.92-.25,1.88-.91,2.91-.66,1.02-1.71,1.8-3.16,2.34-1.45.54-3.36.81-5.74.81-2.92,0-5.37-.5-7.35-1.49s-3.32-2.94-4-5.84h8.89c.29,1.33.91,2,1.88,2,.7,0,1.11-.2,1.25-.61.14-.41.07-1.26-.21-2.57l-.49-2.27c-.63.71-1.34,1.25-2.14,1.62-.79.36-1.66.55-2.62.55-1.65,0-3.08-.33-4.29-1-1.21-.67-2.13-1.54-2.75-2.62-.63-1.08-1.15-2.62-1.58-4.62l-2.35-10.94c-.62-2.86-.54-4.92.21-6.17.76-1.26,2.19-1.88,4.29-1.88,1.15,0,2.25.23,3.29.7,1.05.47,2.04,1.17,2.98,2.11l.17-2.27h8.53ZM112.91,43.25c-.3-1.38-.57-2.25-.81-2.63s-.63-.57-1.18-.57-.86.22-.98.65c-.13.43-.05,1.28.22,2.55l2.18,10.12c.29,1.35.56,2.22.81,2.62.25.4.64.6,1.17.6.6,0,.95-.24,1.02-.73.08-.48-.07-1.58-.44-3.29l-2.01-9.33Z"/>
        <path class="cls-2" d="M132.81,35.26l.49,3.96c.72-2.83,2.32-4.34,4.81-4.5l2.28,10.59c-1.68,0-2.86.23-3.55.68-.69.45-1.04,1.09-1.04,1.89,0,.81.3,2.67.93,5.59l2.56,11.89h-9.17l-6.49-30.11h9.16Z"/>
        <path class="cls-2" d="M150.97,46.93h-8.6l-.44-2.02c-.5-2.33-.62-4.12-.36-5.39.26-1.26,1.1-2.38,2.51-3.35,1.41-.97,3.41-1.45,5.99-1.45,3.1,0,5.55.55,7.36,1.64,1.81,1.1,3.04,2.44,3.71,4.04.66,1.6,1.53,4.88,2.6,9.86l3.26,15.11h-8.92l-.58-2.68c-.33,1.08-.88,1.88-1.64,2.42-.77.54-1.77.81-2.99.81-1.6,0-3.17-.45-4.7-1.35s-2.63-2.87-3.28-5.91l-.53-2.47c-.49-2.25-.46-3.79.07-4.61.53-.82,2.09-1.77,4.67-2.86,2.75-1.18,4.19-1.97,4.32-2.38.12-.41.05-1.24-.22-2.5-.34-1.57-.68-2.6-1.01-3.07-.34-.48-.78-.71-1.32-.71-.62,0-.96.2-1.03.6-.07.4.08,1.44.45,3.12l.68,3.15ZM154.77,51.05c-1.24,1.07-1.89,1.97-1.97,2.7s.03,1.77.32,3.13c.34,1.56.66,2.56.96,3.02.3.45.76.68,1.36.68s.91-.18,1.01-.53c.1-.36-.02-1.29-.34-2.8l-1.34-6.19Z"/>
        <path class="cls-2" d="M172.73,35.26l.46,2.86c.47-1.14,1.13-1.99,1.99-2.56.86-.57,1.92-.85,3.17-.85,2.45,0,4.62,1.14,6.52,3.41.53-1.14,1.21-1.99,2.06-2.56.84-.57,1.86-.85,3.04-.85,1.56,0,2.93.38,4.11,1.13s2.04,1.68,2.56,2.78c.52,1.1,1.05,2.88,1.59,5.34l4.63,21.4h-8.89l-4.24-19.63c-.56-2.57-.99-4.16-1.29-4.78-.31-.61-.78-.92-1.41-.92s-1,.3-1.06.91.19,2.2.75,4.79l4.24,19.63h-8.89l-4.13-19.13c-.64-2.95-1.09-4.72-1.36-5.31-.27-.59-.73-.88-1.38-.88-.41,0-.72.16-.94.47-.22.31-.3.69-.23,1.13.07.45.26,1.4.57,2.85l4.51,20.88h-8.89l-6.5-30.11h9.05Z"/>
        <path class="cls-2" d="M208.54,35.26l.46,2.86c.46-1.14,1.13-1.99,1.99-2.56.86-.57,1.92-.85,3.17-.85,2.45,0,4.62,1.14,6.52,3.41.53-1.14,1.21-1.99,2.05-2.56.84-.57,1.86-.85,3.04-.85,1.56,0,2.93.38,4.11,1.13s2.04,1.68,2.56,2.78c.52,1.1,1.05,2.88,1.59,5.34l4.63,21.4h-8.89l-4.25-19.63c-.56-2.57-.99-4.16-1.29-4.78-.31-.61-.78-.92-1.41-.92s-1,.3-1.06.91.19,2.2.75,4.79l4.25,19.63h-8.89l-4.14-19.13c-.64-2.95-1.09-4.72-1.36-5.31-.27-.59-.73-.88-1.38-.88-.41,0-.72.16-.94.47-.22.31-.3.69-.23,1.13.07.45.26,1.4.57,2.85l4.51,20.88h-8.89l-6.51-30.11h9.05Z"/>
        <path class="cls-2" d="M243.57,41.46l1.62,7.46h-6.92l-1.62-7.46h6.92ZM247.13,57.88l1.62,7.49h-6.92l-1.62-7.49h6.92Z"/>
      </g>
    </g>
  </g>
</svg>