<?xml version="1.0" encoding="UTF-8"?>
<svg id="Capa_2" data-name="Capa 2" xmlns="http://www.w3.org/2000/svg" xmlns:xlink="http://www.w3.org/1999/xlink" viewBox="0 0 130.5 29.76">
  <defs>
    <style>
      .cls-1 {
        fill: url(#Degradado_sin_nombre_11);
        stroke-width: 0px;
      }
    </style>
    <linearGradient id="Degradado_sin_nombre_11" data-name="Degradado sin nombre 11" x1="-118.12" y1="38.95" x2="12.12" y2="38.95" gradientTransform="translate(117.79 -24.93) rotate(-.67)" gradientUnits="userSpaceOnUse">
      <stop offset="0" stop-color="#00aeef"/>
      <stop offset="1" stop-color="#262262"/>
    </linearGradient>
  </defs>
  <g id="Layer_1" data-name="Layer 1">
    <g>
      <path class="cls-1" d="M16.43,8.55l-6.51.02-.56-1.96c-.26-.91-.52-1.5-.75-1.75s-.55-.38-.94-.37c-.42,0-.7.17-.82.51-.12.34-.08.85.12,1.54.26.88.57,1.55.94,1.99.36.45,1.18.98,2.45,1.61,3.64,1.8,6.02,3.27,7.16,4.42s2.07,3.01,2.8,5.57c.53,1.86.7,3.23.51,4.11s-.84,1.63-1.95,2.24-2.5.92-4.2.94c-1.86.02-3.56-.31-5.08-.98s-2.65-1.54-3.37-2.61-1.37-2.58-1.94-4.55l-.5-1.72,6.52-.04.92,3.19c.28.98.56,1.61.82,1.89s.63.42,1.09.41.76-.18.88-.54.09-.89-.12-1.59c-.44-1.54-.95-2.55-1.52-3.02-.58-.47-1.9-1.26-3.97-2.36-2.07-1.12-3.47-1.93-4.19-2.44s-1.4-1.21-2.03-2.11-1.16-2.06-1.57-3.47C.03,5.44-.14,3.95.12,3.01s.91-1.68,1.94-2.21S4.45,0,6.13,0c1.83,0,3.47.29,4.93.87s2.51,1.31,3.18,2.18,1.3,2.36,1.9,4.46l.3,1.04Z"/>
      <path class="cls-1" d="M23.42.56l1.67,5.93c.42-.52.93-.91,1.52-1.18.59-.26,1.26-.39,2.02-.4,1.16,0,2.23.29,3.21.87s1.66,1.25,2.05,2.01.87,2.14,1.43,4.15l4.09,14.66-6.57.07-4.23-15.01c-.35-1.25-.64-2.05-.87-2.41s-.56-.53-1-.53c-.41,0-.63.19-.67.55s.1,1.1.4,2.19l4.3,15.23-6.62.07L16.72.56h6.7Z"/>
      <path class="cls-1" d="M43.93,13.55l-6.16.03-.4-1.43c-.46-1.65-.62-2.93-.49-3.83s.69-1.7,1.66-2.39,2.39-1.04,4.24-1.04c2.22,0,4,.38,5.34,1.16s2.27,1.73,2.8,2.85,1.28,3.45,2.24,6.95l2.89,10.59-6.31.06-.52-1.88c-.19.76-.55,1.33-1.07,1.71s-1.22.58-2.09.59c-1.14.01-2.28-.29-3.41-.91s-1.99-2-2.59-4.14l-.49-1.74c-.44-1.59-.49-2.68-.14-3.26s1.42-1.26,3.22-2.04c1.92-.85,2.92-1.41,2.99-1.7s-.01-.88-.26-1.77c-.31-1.11-.59-1.84-.85-2.18s-.59-.51-.98-.5c-.44,0-.68.14-.71.43s.12,1.02.45,2.21l.62,2.23ZM46.81,16.45c-.84.76-1.27,1.4-1.29,1.91s.09,1.25.36,2.21c.3,1.1.57,1.8.8,2.12s.56.47,1,.47.64-.13.7-.38-.06-.91-.36-1.97l-1.2-4.36Z"/>
      <path class="cls-1" d="M59.14,5.25l.42,1.96c.26-.78.68-1.37,1.25-1.76.57-.39,1.3-.59,2.19-.59,1.11,0,2.09.26,2.93.78s1.47,1.18,1.88,1.97.87,2.11,1.36,3.96l3.92,14.7-6.4.07-3.92-14.57c-.39-1.46-.68-2.34-.86-2.66s-.49-.48-.93-.48c-.46,0-.7.19-.72.55s.19,1.35.62,2.95l3.84,14.23-6.44.07-5.76-21.16h6.62Z"/>
      <path class="cls-1" d="M84.22,5.21l4.2,16.12c.56,2.16.88,3.56.94,4.19s-.11,1.3-.53,2.01-1.12,1.25-2.1,1.64-2.29.58-3.93.6c-2.02.02-3.73-.3-5.13-.97s-2.4-2.01-2.98-4.02l6.17-.06c.24.92.7,1.38,1.37,1.37.48,0,.76-.15.84-.43s0-.87-.23-1.78l-.41-1.57c-.41.5-.89.88-1.42,1.13s-1.13.39-1.79.39c-1.14.01-2.15-.21-3.01-.67s-1.53-1.06-2.01-1.81-.9-1.82-1.27-3.21l-2.03-7.64c-.53-2-.56-3.45-.07-4.33s1.47-1.33,2.94-1.33c.8,0,1.58.16,2.33.49.75.33,1.46.82,2.15,1.48l.04-1.6h5.93ZM79.3,10.8c-.25-.96-.47-1.57-.65-1.84s-.46-.4-.84-.39-.59.15-.66.45,0,.9.24,1.79l1.86,7.05c.25.94.46,1.54.65,1.82s.47.41.83.41c.42,0,.65-.17.68-.51s-.1-1.1-.41-2.29l-1.71-6.49Z"/>
      <path class="cls-1" d="M91.63.57l1.48,5.77c.41-.51.9-.89,1.46-1.14.56-.26,1.2-.38,1.92-.39,1.1,0,2.11.28,3.03.85s1.55,1.22,1.91,1.96.79,2.09,1.28,4.04l3.63,14.27-6.23.06-3.75-14.61c-.31-1.22-.57-2-.78-2.34s-.52-.52-.94-.52c-.38,0-.6.18-.64.54s.07,1.07.34,2.13l3.82,14.82-6.27.06L85.28.56h6.34Z"/>
      <path class="cls-1" d="M110.83,13.21l-5.84.03-.35-1.39c-.41-1.61-.54-2.85-.4-3.73s.68-1.65,1.62-2.32,2.28-1.01,4.04-1.01c2.1,0,3.78.37,5.04,1.13s2.12,1.68,2.61,2.78,1.16,3.35,2,6.77l2.56,10.31-5.98.06-.46-1.83c-.19.74-.54,1.29-1.04,1.66s-1.17.56-1.99.57c-1.08.01-2.15-.29-3.21-.89s-1.86-1.95-2.38-4.03l-.43-1.7c-.39-1.55-.42-2.61-.08-3.17s1.37-1.23,3.09-1.99c1.83-.82,2.79-1.37,2.86-1.66s0-.85-.22-1.72c-.27-1.08-.53-1.79-.77-2.12s-.55-.49-.92-.49c-.42,0-.65.14-.68.42s.1.99.39,2.15l.55,2.17ZM113.51,16.04c-.81.74-1.23,1.36-1.26,1.86s.07,1.21.3,2.15c.27,1.07.51,1.75.73,2.06s.53.46.94.46.61-.13.67-.37-.05-.88-.3-1.92l-1.06-4.24Z"/>
      <path class="cls-1" d="M124.34.57l.81,3.3h-6.35s-.82-3.3-.82-3.3h6.36ZM125.46,5.13l5.04,20.55-6.28.06-5.1-20.6h6.35Z"/>
    </g>
  </g>
</svg>