<?xml version="1.0" encoding="UTF-8"?>
<svg id="Capa_2" xmlns="http://www.w3.org/2000/svg" xmlns:xlink="http://www.w3.org/1999/xlink" viewBox="0 0 203.8640975 203.8640975">
  <defs>
    <style>
      .cls-1 {
        fill: none;
      }

      .cls-2 {
        fill: url(#Degradado_sin_nombre_14);
      }
    </style>
    <linearGradient id="Degradado_sin_nombre_14" data-name="Degradado sin nombre 14" x1="13.1323373" y1="101.9320488" x2="190.7317603" y2="101.9320488" gradientUnits="userSpaceOnUse">
      <stop offset="0" stop-color="#009fe3"/>
      <stop offset="1" stop-color="#164193"/>
    </linearGradient>
  </defs>
  <g id="Capa_1-2" data-name="Capa_1">
    <g>
      <g>
        <path class="cls-2" d="M13.158417,101.9641705c0-29.0406998-.0039831-58.0814113.0027638-87.1221112.0017186-7.418734,4.2101443-12.7968796,11.3666754-14.5442599.6665767-.162754,1.3720085-.2338337,2.0594295-.2340601,38.2348639-.0127621,76.4697395-.009377,114.7046034-.025437,2.2873699-.0009638,4.1491906.8284772,5.7456906,2.426748,13.7120494,13.72743,27.4257012,27.4533098,41.1620438,41.1564176,1.7201027,1.7159106,2.5324386,3.719705,2.5321366,6.1197038-.0060152,46.160254.0097312,92.320508-.0217849,138.4807504-.0054114,7.9338904-4.3116718,13.4968478-11.6159594,15.205849-1.2766472.2986949-2.6381349.3248925-3.9604654.3253338-48.697024.0161645-97.3942106-.0467981-146.0909559.0726241-8.6017212.0210882-13.7534361-4.9359095-15.2264727-10.0877405-.4102904-1.4349479-.6529437-2.9713652-.6548597-4.4616347-.0374501-29.1039992-.0278118-58.2081145-.0278118-87.3121834h.0249667ZM138.3525742,8.4356273h-2.3586237c-20.162359-.0000116-40.3247064-.0002729-60.4870654.0000581-15.5972924.0002497-31.1945848-.0077803-46.7918656.0074842-4.5938422.004494-7.4436717,2.8552177-7.5261431,7.4572001-.0181735,1.0139973.0124253,2.0287843.0121466,3.0431997-.0154445,56.048702-.0329445,112.097404-.0462523,168.1460944-.0013354,5.6275458,2.9166939,8.5631215,8.482566,8.5632144,48.2501545.0006967,96.500309.0019044,144.7504635-.0098938.8105708-.0001858,1.654446-.0449866,2.4260223-.2665517,3.8108741-1.0943553,5.697081-3.6371986,5.6976152-7.6832941.0059223-44.3824724.0022296-88.7649564-.0043895-133.1474403-.0000697-.4853183-.0733441-.9706249-.1230685-1.587512-.7959624,0-1.4827679-.0000116-2.1695734,0-8.4960713.0001858-16.9922123.0180806-25.4882139-.0042385-9.1059561-.0239332-16.3706454-7.3064128-16.372875-16.3740594-.0019509-8.0522559-.0006271-16.1045233-.0007432-24.1567792-.0000232-1.2552804,0-2.5105549,0-3.9874818ZM176.9897043,44.9766732c-10.0733411-10.080866-20.1663769-20.1814614-30.2672859-30.2899185,0,7.8184977-.1042332,15.7074828.0487258,23.5914745.0658889,3.3958343,3.1792277,6.5578988,6.6521104,6.6398129,7.8874174.186066,15.7822204.0586312,23.5664497.0586312Z"/>
        <path class="cls-2" d="M101.8130901,123.7544527c17.8136987-.0007664,35.6273975-.0032747,53.4410962.0017883,2.8338043.0008129,4.6662224,1.4517627,4.787224,3.7468664.1437619,2.7268306-1.4513911,4.3932142-4.4547601,4.4217344-5.8949104.0559719-11.7907497.0190444-17.6861943.0183476-29.6679684-.0034373-59.3359485-.0029728-89.0038937-.0304013-1.0541415-.0009522-2.174439-.104117-3.1468058-.4704195-1.538612-.579646-2.3873064-2.5012476-2.1339348-4.2656633.2405631-1.6752323,1.800182-3.1682887,3.6168653-3.3871134.6880945-.0828431,1.3928877-.0333509,2.0900747-.0333973,17.4967723-.0011845,34.9935562-.0009522,52.4903285-.0017419Z"/>
        <path class="cls-2" d="M101.8894418,97.8616153c17.7535347.0001393,35.5070811-.0004529,53.2606042.0007084,3.0829374.000209,4.8571308,1.4517162,4.8907836,3.9912152.0349302,2.6369388-1.596918,4.134048-4.7766102,4.1396801-18.0067205.0318761-36.0134875.0237474-54.0202545.0280556-16.8654858.0040411-33.7309716.0086396-50.5964575.0051327-1.0764025-.0002322-2.1590061-.0073623-3.2278953-.1169139-2.351993-.2410624-3.978546-2.1363734-3.8120005-4.3556596.1592296-2.1219276,1.9314605-3.6867721,4.260368-3.6884327,13.2517443-.0094641,26.5034886-.0041456,39.7552328-.0039134,4.7554059.0000813,9.5108234,0,14.2662293.0001277Z"/>
        <path class="cls-2" d="M86.2138584,149.55453c12.6830488.0019044,25.3661208.0109389,38.0491231-.0103815,1.4587766-.0024618,2.7976432.1678461,3.7048294,1.4540852.9344754,1.3249317,1.2694011,2.770865.4866305,4.2708657-.8266192,1.5840515-2.139172,2.3504718-3.9911223,2.3458036-11.9854669-.0302155-23.9710848-.0147246-35.9566447-.0149568-13.5075197-.0002555-27.0150857-.0161181-40.5225241.0159787-1.7746811.0042269-3.0867463-.6946323-3.9159318-2.1719888-.8062626-1.4365504-.8121152-3.0871643.356188-4.2257398.8511214-.829499,2.2155354-1.5754815,3.3609506-1.5901364,9.7642879-.1248801,19.5308286-.0739479,29.2966959-.0753879,3.0439312-.0004413,6.0878741-.0000697,9.1318053.001858Z"/>
      </g>
      <rect class="cls-1" width="203.8640975" height="203.8640975"/>
    </g>
  </g>
</svg>