<?xml version="1.0" encoding="UTF-8"?>
<svg id="Capa_2" xmlns="http://www.w3.org/2000/svg" xmlns:xlink="http://www.w3.org/1999/xlink" viewBox="0 0 230.9175116 230.9175116">
  <defs>
    <style>
      .cls-1 {
        fill: none;
      }

      .cls-2 {
        fill: url(#Degradado_sin_nombre_14);
      }
    </style>
    <linearGradient id="Degradado_sin_nombre_14" data-name="Degradado sin nombre 14" x1="0" y1="115.4587558" x2="230.9175116" y2="115.4587558" gradientUnits="userSpaceOnUse">
      <stop offset="0" stop-color="#009fe3"/>
      <stop offset="1" stop-color="#164193"/>
    </linearGradient>
  </defs>
  <g id="Capa_1-2" data-name="Capa_1">
    <g>
      <path class="cls-2" d="M17.3076221,221.4261067c0-7.8787814-.0087847-15.5654213.0015663-23.2520109.0400215-29.7121904.0971218-59.4243808.1039722-89.1365963.0004292-1.8764084.8419337-2.8788214,2.1000573-3.7320331,8.870894-6.016065,17.7355116-12.0439452,26.6074814-18.0579948,2.0736587-1.4056782,4.1212868-2.8771335,6.2767387-4.1032286.7985678-.454267,1.98482-.665945,2.804112-.3528933,14.3353583,5.4774921,28.6367597,11.0683746,42.9616054,16.5813248,1.1796414.4540151,1.531652,1.0929036,1.5295896,2.4991487-.0573901,38.9314902-.068527,77.8631189-.0872557,116.7946973-.0003902.8192274-.0000334,1.6384296-.0000334,2.6084831h7.723476c0-.717627-.0000446-1.4463889,0-2.1751257.002185-40.9951779-.0072462-81.9903558.046164-122.9854455.0022965-1.7650711-.5094098-2.4944125-1.9309192-3.0305922-10.8663993-4.098694-21.7052853-8.2904231-32.5628554-12.419247-.9868137-.375264-1.3829371-.8923983-1.3722907-2.1521252.1273441-15.062168.2152353-30.1249279.253016-45.1877131.0050166-2.0009589.6992053-3.3100626,2.1090984-4.4363712,11.6766168-9.3279604,23.324193-18.7023375,34.9793945-28.0645089.8569501-.6883536,1.6291528-1.1034592,2.8107562-.6037138,29.3201794,12.4005543,58.6589983,24.744741,87.9943613,37.0994958,3.3028308,1.3910037,3.4195955,1.5714182,3.4195955,5.46084.0003121,58.5348543-.000825,117.0697087-.0016276,175.6045504-.0000223.8874481,0,1.7748709,0,2.9164334.740297.0461774,1.3783664.1197892,2.0164804.120545,7.061639.0083386,14.1233002.0014612,21.1849392.0074821,2.8301092.0023933,4.6753557,1.9045103,4.642023,4.758341-.033734,2.888999-1.8345443,4.7275812-4.6811081,4.7277072-73.842968.0030231-147.6859471.0024688-221.5289262-.0011588-2.6897888-.000126-4.8685345-2.145424-4.6976183-4.768166.1951242-2.9942019,2.4239748-4.8773241,4.7790659-4.7716677,4.1211976.1848609,8.2535711.0515434,12.5191414.0515434ZM146.8318122,221.3612114v-41.6867812c7.2476998.78091,14.2871542,1.5393736,21.5485438,2.3217447v39.3209249h6.8158692v-47.0359565c-1.3092262-.1588876-2.5645628-.3114772-3.8199217-.4635126-5.3018534-.6421006-10.604398-1.2766686-15.905315-1.9281911-4.7586538-.5848637-9.5228148-1.1239531-14.2700531-1.811047-2.3224496-.3361908-2.4282445-.3671269-2.4290695,2.2403485-.004972,15.6735465-.0057524,31.3470679-.0031215,47.0206144.0001115.6560823.0480258,1.3121645.0757621,2.0218559h7.9873056ZM66.7924941,171.0917767c0,3.2330498.0176362,6.466276-.0082273,9.699074-.0111703,1.39608.4265464,2.1721782,1.7657832,2.2783384,1.6297548.1291608,3.2464663.4547708,4.8735344.6435617,3.0174632.3501473,6.0386053.6595588,9.0576404.9926762.9309954.1026837,1.4973606-.1518086,1.5103035-1.411145.0664646-6.4652432.2166399-12.9299321.217922-19.3948226.0001338-.6309656-.7540537-1.7334296-1.2640655-1.8200155-4.8478605-.8228803-9.7220973-1.4446759-14.5804927-2.1927855-1.2922255-.1989937-1.5939696.4283442-1.5789977,1.7129483.0368554,3.1635696.0120622,6.3280713.0065996,9.4921699ZM83.7475534,141.3710966c.1113021-.4725566.2489693-.7940855.2542869-1.1184108.106029-6.4539066.1890151-12.9083171.2965491-19.3621986.0238568-1.4322183-.8356016-1.9012731-1.8143664-2.1316942-4.7212633-1.1114577-9.4556813-2.1516339-14.1758967-3.2685709-1.0585848-.2504993-1.5059112.1428024-1.495053,1.3129833.0618716,6.6616421.0930304,13.3242541.2487797,19.983125.0136675.5841331.7697278,1.4849079,1.3199618,1.6510509,1.6850045.508909,3.4361949.7421391,5.1645207,1.0628366,3.3819039.627489,6.7657588,1.241601,10.2012179,1.8708787ZM85.0475045,71.7272955c.6678012-.2845467.9974155-.4095255,1.3162272-.563148,4.6596927-2.2453869,9.2834886-4.5936843,13.9964578-6.6855747,1.5167805-.6732508,1.9296594-1.5031345,1.8995932-3.265296-.1042677-6.1118964-.0371341-12.2274835-.0443023-18.3416597-.0008361-.7143016-.0583377-1.4285402-.1115808-2.6460196-5.5459733,3.4173817-10.782711,6.615704-15.9800961,9.8936591-.4860213.3065143-1.0237917,1.1119364-1.030291,1.6929457-.0727744,6.5175171-.046008,13.036445-.046008,19.9150933ZM124.7741818,40.3383959c-.1554706.5807574-.251589.7728862-.2519012.9652292-.0118838,7.0049119-.0536667,14.0105545.0463536,21.013577.0091414.6389515.8367498,1.6154417,1.451609,1.8338208,4.0726701,1.4463386,8.1851834,2.7519405,12.2972061,4.0531086,1.8225713.576714,2.2514589.1605377,2.2551377-2.0528298.0098995-5.974926-.0489845-11.9508346.0359859-17.9242364.0242358-1.7048868-.6018606-2.4964783-1.929548-2.9609104-2.7600326-.9655315-5.4977022-2.0124088-8.2528743-2.9961669-1.8704633-.6678722-3.7550624-1.2852718-5.6519689-1.931592ZM124.5001852,94.4729796c0,3.2270919.0338232,6.4548513-.0168781,9.6809229-.0199773,1.2713153.2004195,1.9363282,1.5049636,2.2065531,4.0264504.834053,8.0188323,1.8792803,12.0222285,2.854007,2.504185.6097285,2.5633811.5666119,2.5645851-2.3492547.0024303-5.9048789-.0520391-11.8107529.034336-17.714007.0238122-1.6279748-.5152626-2.340387-1.8359936-2.6929024-4.1579527-1.109858-8.3216131-2.2054194-12.4411051-3.4796066-1.5138374-.4682361-1.8550121.0793556-1.8407426,1.607166.0308132,3.2953755.0094535,6.5913809.0086063,9.8871217ZM124.5013223,136.4573193c0,3.3663925.0236561,6.7331126-.0131547,10.0990012-.0124189,1.1375317.241645,1.732296,1.3754456,1.8923929,4.1999808.593026,8.3887467,1.2896426,12.5776463,1.9790795,1.6093093.2648463,2.1617171-.5357136,2.1500117-2.2810088-.0400661-5.9767399-.049096-11.9544119.006778-17.9308242.0160755-1.7208587-.7172205-2.5356901-2.0721091-2.8202619-4.0929373-.8596862-8.191181-1.6870381-12.2866155-2.5315963-1.2119261-.2499199-1.7971315.1505112-1.7614132,1.7008057.0758959,3.2954637.0231433,6.5947188.0234109,9.892412ZM45.9642811,160.8227529c-.4510944-.0307094-.7499735-.1138439-1.0284405-.0606126-4.4698749.8543454-8.9477653,1.6661915-13.3909853,2.6728997-.5289412.1198396-1.2233306,1.3169007-1.234813,2.0271463-.0978575,6.0493188-.0143475,12.1020889-.0821053,18.1524658-.0183274,1.6360615.5908017,2.0656149,1.8634847,1.8941563,4.0890355-.5507534,8.1763764-1.1203758,12.2704954-1.6184773,1.2484694-.151859,1.6439462-.8767917,1.6125422-2.1872432-.0428196-1.7865853-.0102228-3.5754632-.0102005-5.3633585.0000669-5.1424727.0000223-10.2849202.0000223-15.5169766ZM45.9647159,116.1581699c-5.1496046,2.0617353-10.0267398,3.9818271-14.8677554,6.0118957-.4044176.1695944-.7986347,1.0774104-.8037962,1.6468186-.0561527,6.1857727-.014381,12.3725909-.0469556,18.5588045-.007458,1.4162086.6006008,1.6605988,1.6119068,1.3453427,4.180494-1.303322,8.344868-2.6757969,12.5418276-3.9067667,1.2855143-.3770275,1.5904022-1.1837091,1.5783177-2.516355-.037424-4.1238737-.0135783-8.2484275-.0135449-12.3727169.0000334-2.7996421,0-5.5992841,0-8.767023ZM151.2380764,141.345728c.0099886.0000504.0199996.0000756.0299882.000126,0,3.15707.0344252,6.3148705-.0171903,9.4708572-.0201557,1.2337662.3044754,1.9324738,1.460193,2.0964502,3.598254.5105213,7.1905104,1.0750801,10.7858436,1.6119021,1.8598281.2777448,2.2673337-.0990056,2.2787939-2.252995.0306794-5.7675433.0094312-11.53554.0609352-17.302781.0128648-1.4388061-.4971804-2.0747345-1.7464525-2.3172605-3.7420415-.7264443-7.4733585-1.528289-11.1973624-2.3659319-1.4190345-.3191609-1.6807236.4536876-1.6656961,1.7956042.0345812,3.0875897.0109474,6.1759603.0109474,9.2640287ZM151.6683017,89.977268c-.1530403.6861114-.3155342,1.0719059-.3135276,1.4566296.0338678,6.5225178.0979913,13.044834.128314,19.567377.0050612,1.0918707.1999067,1.6851865,1.3434061,1.9322092,3.7283071.8053465,7.4248868,1.7998365,11.1292925,2.7436144,1.2579006.320496,1.8207876-.196021,1.8314006-1.6568326.043901-6.043978.1524383-12.0879183.1244345-18.1312161-.0030769-.6681997-.6183151-1.7604987-1.1362532-1.930534-4.2721532-1.4025796-8.5883858-2.6337636-13.1070669-3.9812476ZM151.7015897,50.0797173c-.0977683.741018-.1611561.9983696-.1614237,1.2557842-.0062429,6.4555315.0205124,12.9113024-.0286505,19.3663679-.0099218,1.3046824.5259647,1.8232527,1.5172487,2.1319336,3.6561569,1.1385268,7.3189135,2.2556276,10.9476017,3.4985008,1.5135922.5184191,1.812605-.1708414,1.8260272-1.6618332.0527079-5.8363434.1192841-11.6732283.2610426-17.5074052.0351386-1.4466157-.5082393-2.1329035-1.6364882-2.5225649-1.9003401-.6563216-3.7847385-1.3713286-5.6787911-2.0511923-2.2686491-.8142897-4.5403752-1.6175956-7.0465668-2.5095909ZM176.7760813,58.7675358c-.2405525.5877734-.3766255.7655427-.3770714.9437654-.0163876,6.5241931-.045707,13.0487766.0241467,19.571962.0054402.5067173.6395856,1.2957518,1.114626,1.4589347,3.6834696,1.2653195,7.3944527,2.4305879,11.1092037,3.5760174,1.0107708.3116788,1.6234673-.0931484,1.6183392-1.4392973-.0225413-5.9063401.023344-11.8134485-.0573901-17.7184912-.0087847-.6431712-.5570231-1.6575757-1.0534232-1.8514932-4.0731384-1.5911689-8.1932992-3.0286398-12.3784308-4.5413977ZM176.3707607,107.7902806h-.0126642c0,2.8190527.1507661,5.6519989-.0512587,8.4524471-.1424497,1.9743055.694211,2.4998918,2.0953863,2.8024258,3.2584616.7035193,6.5407132,1.3149105,9.7489195,2.2467347,1.6743692.4863242,2.1093882-.1119167,2.1076045-1.7892305-.0059754-5.5693683.0519276-11.1402229-.0663755-16.7063918-.0162984-.7678226-.7672084-1.9902144-1.3835391-2.18912-3.588689-1.158076-7.258179-1.9934391-10.8581498-3.111346-1.3696486-.4253337-1.5989862.1207465-1.5878604,1.4248747.0252392,2.9562876.0079374,5.9130412.0079374,8.8696059ZM176.1071987,145.9188806l-.0225413-.0003023c0,2.8866561.016789,5.7734886-.0080489,8.6598677-.0103008,1.1951716.2898937,1.9085663,1.4896016,2.0697464,3.5428036.4759323,7.0746822,1.0561103,10.6102842,1.5999862,1.0841026.1667224,1.7435763-.1420088,1.758916-1.5884985.0590846-5.5678693.1529957-11.135512.2742419-16.7021217.0290741-1.3341574-.4907592-2.0797478-1.5981612-2.3069317-3.5640295-.7311804-7.1454723-1.3626246-10.6938499-2.1787786-1.4983193-.344605-1.8322478.336342-1.8185134,1.7898099.0272458,2.8854469.0080712,5.7714481.0080712,8.6572225Z"/>
      <rect class="cls-1" x="0" width="230.9175116" height="230.9175116"/>
    </g>
  </g>
</svg>