<?xml version="1.0" encoding="UTF-8"?>
<svg id="Capa_2" data-name="Capa 2" xmlns="http://www.w3.org/2000/svg" xmlns:xlink="http://www.w3.org/1999/xlink" viewBox="0 0 303.18 82.55">
  <defs>
    <style>
      .cls-1 {
        fill: url(#Degradado_sin_nombre_11);
        stroke-width: 0px;
      }
    </style>
    <linearGradient id="Degradado_sin_nombre_11" data-name="Degradado sin nombre 11" x1="0" y1="41.27" x2="303.18" y2="41.27" gradientUnits="userSpaceOnUse">
      <stop offset="0" stop-color="#00aeef"/>
      <stop offset="1" stop-color="#262262"/>
    </linearGradient>
  </defs>
  <g id="Layer_1" data-name="Layer 1">
    <g>
      <path class="cls-1" d="M0,1.13h8.34c2.63,0,4.68.21,6.13.62,1.45.41,2.73,1.24,3.85,2.49s1.99,3.26,2.62,6.04c.43,1.88.43,3.19,0,3.93-.42.74-1.45,1.31-3.1,1.71,2.03.44,3.51,1.16,4.43,2.18.92,1.01,1.62,2.57,2.09,4.66l.68,2.98c.49,2.17.61,3.78.35,4.83s-.89,1.76-1.89,2.15c-1,.38-3.18.58-6.54.58H7.3L0,1.13ZM9.61,6.63l1.62,7.15c.35-.01.63-.02.83-.02.82,0,1.3-.2,1.43-.61.13-.4-.02-1.56-.45-3.47-.23-1.01-.48-1.71-.76-2.12-.28-.4-.58-.66-.9-.76-.32-.11-.91-.17-1.78-.18ZM12.37,18.79l2.04,9c1.17-.04,1.88-.22,2.13-.56.25-.33.23-1.14-.07-2.44l-.68-3c-.31-1.38-.65-2.21-1-2.5-.36-.29-1.16-.46-2.42-.5Z"/>
      <path class="cls-1" d="M44.81,20.57h-10.39l1.29,5.7c.27,1.19.53,1.96.78,2.3.25.34.62.52,1.11.52.61,0,.96-.23,1.07-.69.1-.46,0-1.34-.29-2.65l-.79-3.48h7.61l.44,1.95c.37,1.63.55,2.88.54,3.75,0,.87-.28,1.81-.8,2.8s-1.32,1.74-2.36,2.23c-1.05.5-2.44.74-4.19.74s-3.25-.25-4.65-.73c-1.41-.49-2.57-1.16-3.49-2.02-.92-.85-1.63-1.79-2.14-2.82-.51-1.03-.99-2.52-1.43-4.48l-1.74-7.69c-.52-2.3-.62-4.12-.3-5.45.32-1.33,1.11-2.35,2.36-3.06,1.26-.71,2.8-1.06,4.64-1.06,2.25,0,4.2.43,5.86,1.28,1.66.85,2.94,1.99,3.85,3.4.91,1.41,1.65,3.39,2.23,5.95l.79,3.5ZM35.79,16.29l-.44-1.93c-.31-1.36-.58-2.24-.82-2.64-.24-.4-.58-.6-1.03-.6-.56,0-.86.17-.92.51-.06.34.08,1.25.42,2.73l.44,1.93h2.34Z"/>
      <path class="cls-1" d="M52.36,6.93l.47,3.47c.6-2.48,1.99-3.8,4.17-3.94l2.1,9.27c-1.47,0-2.5.2-3.1.6-.6.4-.9.95-.89,1.66,0,.71.29,2.34.87,4.9l2.36,10.41h-8.02l-5.98-26.35h8.02Z"/>
      <path class="cls-1" d="M77.26,6.93l5.98,26.35h-8.16l-.36-2.19c-.35.89-.89,1.55-1.6,2-.71.44-1.6.67-2.66.67-1.2,0-2.25-.21-3.14-.64s-1.6-.99-2.14-1.69c-.54-.7-.94-1.43-1.2-2.19-.27-.76-.65-2.27-1.17-4.54l-4.03-17.77h8.02l4.07,17.93c.47,2.05.8,3.27,1.02,3.65.21.38.6.58,1.15.58.6,0,.9-.2.93-.6.02-.4-.21-1.67-.7-3.83l-4.02-17.73h8.02Z"/>
      <path class="cls-1" d="M89.06,1.13l.92,4.07c-1.66,0-2.61.08-2.88.23-.26.15-.31.59-.15,1.3l.19.83h3.38l.95,4.17h-1.91l4.88,21.55h-8.02l-4.89-21.55h-1.65l-.95-4.17h1.65c-.39-1.73-.6-2.89-.61-3.48-.01-.58.16-1.1.53-1.56.37-.46.95-.8,1.74-1.04.79-.24,2.08-.36,3.87-.36h2.94Z"/>
      <path class="cls-1" d="M110.19,15.35h-7.11l-.32-1.43c-.28-1.22-.52-1.99-.73-2.31-.21-.32-.6-.49-1.15-.49-.45,0-.75.15-.91.45-.16.3-.17.74-.03,1.34.18.81.37,1.4.57,1.78.2.38.63.79,1.29,1.24.66.45,1.97,1.11,3.91,1.97,2.59,1.14,4.36,2.21,5.32,3.22.96,1.01,1.65,2.47,2.09,4.39.49,2.14.57,3.76.27,4.86s-1.05,1.93-2.22,2.52c-1.17.59-2.68.88-4.52.88-2.04,0-3.86-.32-5.45-.95s-2.79-1.5-3.57-2.58c-.79-1.09-1.43-2.73-1.93-4.92l-.29-1.27h7.11l.38,1.67c.32,1.42.62,2.34.89,2.76.27.42.68.64,1.21.64.57,0,.93-.14,1.09-.43.16-.28.14-.88-.07-1.8-.29-1.26-.61-2.05-.97-2.36-.38-.32-2.15-1.26-5.31-2.82-2.66-1.32-4.37-2.52-5.13-3.6-.76-1.08-1.31-2.36-1.65-3.84-.48-2.11-.55-3.66-.22-4.66.33-1,1.1-1.77,2.31-2.31,1.21-.54,2.69-.81,4.45-.81s3.28.22,4.61.67c1.33.44,2.4,1.03,3.22,1.76.82.73,1.37,1.4,1.65,2.03.28.62.57,1.6.87,2.92l.35,1.53Z"/>
      <path class="cls-1" d="M118.97,6.93l.43,2.51c.4-.99.97-1.74,1.72-2.24.75-.5,1.67-.75,2.77-.75,2.14,0,4.06.99,5.74,2.98.45-.99,1.04-1.74,1.78-2.24.73-.5,1.62-.75,2.65-.75,1.36,0,2.57.33,3.61.99,1.04.66,1.8,1.47,2.27,2.43.47.96.95,2.52,1.44,4.68l4.24,18.73h-7.78l-3.89-17.18c-.51-2.25-.9-3.64-1.18-4.18-.27-.54-.69-.8-1.24-.8s-.88.27-.92.79c-.05.53.19,1.93.7,4.19l3.89,17.18h-7.78l-3.79-16.74c-.58-2.58-1-4.13-1.24-4.65-.24-.52-.65-.77-1.22-.77-.36,0-.63.14-.82.41-.19.27-.25.6-.19.99.06.39.24,1.22.53,2.49l4.14,18.27h-7.78l-5.97-26.35h7.92Z"/>
      <path class="cls-1" d="M163.67,20.57h-10.39l1.29,5.7c.27,1.19.53,1.96.78,2.3.25.34.62.52,1.11.52.61,0,.96-.23,1.07-.69.1-.46,0-1.34-.29-2.65l-.79-3.48h7.61l.44,1.95c.37,1.63.55,2.88.54,3.75,0,.87-.28,1.81-.81,2.8s-1.32,1.74-2.36,2.23c-1.05.5-2.44.74-4.19.74s-3.25-.25-4.65-.73c-1.41-.49-2.57-1.16-3.48-2.02-.92-.85-1.63-1.79-2.14-2.82-.51-1.03-.99-2.52-1.43-4.48l-1.74-7.69c-.52-2.3-.62-4.12-.3-5.45.32-1.33,1.11-2.35,2.37-3.06,1.26-.71,2.8-1.06,4.65-1.06,2.25,0,4.2.43,5.86,1.28,1.66.85,2.94,1.99,3.85,3.4.91,1.41,1.65,3.39,2.23,5.95l.79,3.5ZM154.65,16.29l-.44-1.93c-.31-1.36-.58-2.24-.82-2.64-.24-.4-.58-.6-1.03-.6-.56,0-.86.17-.92.51-.06.34.08,1.25.42,2.73l.44,1.93h2.34Z"/>
      <path class="cls-1" d="M181.49,15.35h-7.11l-.32-1.43c-.28-1.22-.52-1.99-.73-2.31-.21-.32-.6-.49-1.15-.49-.45,0-.75.15-.91.45-.16.3-.17.74-.03,1.34.18.81.37,1.4.57,1.78.2.38.63.79,1.29,1.24.66.45,1.97,1.11,3.91,1.97,2.59,1.14,4.36,2.21,5.32,3.22.96,1.01,1.65,2.47,2.09,4.39.49,2.14.57,3.76.26,4.86s-1.05,1.93-2.22,2.52c-1.17.59-2.68.88-4.52.88-2.04,0-3.86-.32-5.45-.95s-2.78-1.5-3.57-2.58c-.79-1.09-1.43-2.73-1.93-4.92l-.29-1.27h7.11l.38,1.67c.32,1.42.62,2.34.89,2.76.27.42.68.64,1.21.64.57,0,.93-.14,1.09-.43.16-.28.14-.88-.07-1.8-.28-1.26-.61-2.05-.97-2.36-.38-.32-2.15-1.26-5.31-2.82-2.66-1.32-4.36-2.52-5.13-3.6-.76-1.08-1.31-2.36-1.64-3.84-.48-2.11-.55-3.66-.22-4.66.33-1,1.1-1.77,2.31-2.31,1.21-.54,2.69-.81,4.45-.81s3.28.22,4.61.67c1.32.44,2.4,1.03,3.22,1.76.82.73,1.37,1.4,1.65,2.03.28.62.57,1.6.87,2.92l.35,1.53Z"/>
      <path class="cls-1" d="M200.64,15.35h-7.11l-.32-1.43c-.28-1.22-.52-1.99-.73-2.31-.21-.32-.6-.49-1.15-.49-.45,0-.75.15-.91.45-.16.3-.17.74-.03,1.34.18.81.37,1.4.57,1.78.2.38.63.79,1.29,1.24.66.45,1.97,1.11,3.91,1.97,2.59,1.14,4.36,2.21,5.32,3.22.96,1.01,1.65,2.47,2.09,4.39.49,2.14.57,3.76.26,4.86s-1.05,1.93-2.22,2.52c-1.17.59-2.68.88-4.52.88-2.04,0-3.85-.32-5.45-.95s-2.78-1.5-3.57-2.58c-.79-1.09-1.43-2.73-1.93-4.92l-.29-1.27h7.11l.38,1.67c.32,1.42.62,2.34.89,2.76.27.42.68.64,1.21.64.57,0,.93-.14,1.09-.43.16-.28.14-.88-.07-1.8-.28-1.26-.61-2.05-.97-2.36-.38-.32-2.14-1.26-5.31-2.82-2.66-1.32-4.36-2.52-5.13-3.6-.76-1.08-1.31-2.36-1.64-3.84-.48-2.11-.55-3.66-.22-4.66.33-1,1.1-1.77,2.31-2.31,1.21-.54,2.69-.81,4.45-.81s3.28.22,4.61.67c1.32.44,2.4,1.03,3.22,1.76.82.73,1.37,1.4,1.65,2.03.28.62.57,1.6.87,2.92l.35,1.53Z"/>
      <path class="cls-1" d="M222.75,20.57h-10.39l1.29,5.7c.27,1.19.53,1.96.78,2.3.25.34.62.52,1.11.52.61,0,.96-.23,1.07-.69.1-.46,0-1.34-.29-2.65l-.79-3.48h7.61l.44,1.95c.37,1.63.55,2.88.54,3.75,0,.87-.28,1.81-.81,2.8s-1.32,1.74-2.36,2.23c-1.05.5-2.44.74-4.19.74s-3.25-.25-4.65-.73c-1.41-.49-2.57-1.16-3.48-2.02-.92-.85-1.63-1.79-2.14-2.82-.51-1.03-.99-2.52-1.43-4.48l-1.74-7.69c-.52-2.3-.62-4.12-.3-5.45.32-1.33,1.11-2.35,2.37-3.06,1.26-.71,2.8-1.06,4.65-1.06,2.25,0,4.2.43,5.86,1.28,1.66.85,2.94,1.99,3.85,3.4.91,1.41,1.65,3.39,2.23,5.95l.79,3.5ZM213.74,16.29l-.44-1.93c-.31-1.36-.58-2.24-.82-2.64-.24-.4-.58-.6-1.03-.6-.56,0-.86.17-.92.51-.06.34.08,1.25.42,2.73l.44,1.93h2.34Z"/>
      <path class="cls-1" d="M238.37,1.13l.92,4.07c-1.66,0-2.61.08-2.88.23-.26.15-.31.59-.15,1.3l.19.83h3.38l.94,4.17h-1.91l4.87,21.55h-8.02l-4.87-21.55h-1.65l-.94-4.17h1.65c-.39-1.73-.59-2.89-.61-3.48-.01-.58.16-1.1.53-1.56.37-.46.95-.8,1.74-1.04.79-.24,2.08-.36,3.87-.36h2.94Z"/>
      <path class="cls-1" d="M259.58,6.93l5.96,26.35h-8.16l-.36-2.19c-.36.89-.89,1.55-1.6,2-.71.44-1.6.67-2.66.67-1.2,0-2.25-.21-3.14-.64s-1.6-.99-2.14-1.69c-.54-.7-.94-1.43-1.2-2.19-.26-.76-.65-2.27-1.17-4.54l-4.02-17.77h8.02l4.05,17.93c.46,2.05.8,3.27,1.01,3.65.21.38.6.58,1.15.58.6,0,.9-.2.93-.6.02-.4-.21-1.67-.7-3.83l-4.01-17.73h8.02ZM247.07,0l1.17,5.16h-5.18l-1.17-5.16h5.18ZM255.75,0l1.17,5.16h-5.18l-1.17-5.16h5.18Z"/>
      <path class="cls-1" d="M270.49,6.93l.47,3.47c.6-2.48,1.99-3.8,4.17-3.94l2.1,9.27c-1.47,0-2.5.2-3.1.6-.6.4-.9.95-.9,1.66,0,.71.29,2.34.87,4.9l2.35,10.41h-8.02l-5.96-26.35h8.02Z"/>
      <path class="cls-1" d="M11.08,49.93h6.26c4.04,0,6.81.19,8.32.56,1.51.37,2.73.98,3.66,1.83.93.85,1.61,1.79,2.03,2.83.42,1.04.98,3.08,1.67,6.12l2.55,11.26c.65,2.89.96,4.81.91,5.79-.05.97-.35,1.73-.9,2.28-.55.55-1.3.93-2.24,1.15s-2.41.33-4.41.33h-10.54l-7.3-32.14ZM20.69,55.43l4.8,21.14c1.2,0,1.89-.24,2.06-.72.17-.48,0-1.8-.48-3.94l-2.83-12.49c-.33-1.46-.59-2.39-.77-2.8-.19-.41-.47-.71-.84-.9-.37-.19-1.02-.29-1.93-.29Z"/>
      <path class="cls-1" d="M55.9,69.37h-10.38l1.29,5.7c.27,1.19.53,1.96.78,2.3.25.34.62.52,1.11.52.61,0,.96-.23,1.07-.68.1-.46,0-1.34-.29-2.65l-.79-3.47h7.6l.44,1.95c.37,1.63.55,2.88.54,3.75,0,.87-.28,1.81-.8,2.8s-1.32,1.74-2.36,2.23c-1.05.5-2.44.74-4.19.74s-3.25-.25-4.65-.73c-1.41-.49-2.57-1.16-3.49-2.01-.92-.85-1.63-1.79-2.14-2.82-.51-1.03-.99-2.52-1.43-4.48l-1.74-7.68c-.52-2.3-.62-4.12-.3-5.45.32-1.33,1.11-2.35,2.36-3.06,1.26-.71,2.8-1.06,4.64-1.06,2.25,0,4.2.43,5.86,1.28,1.66.85,2.94,1.99,3.85,3.39.91,1.41,1.65,3.39,2.23,5.95l.79,3.49ZM46.88,65.08l-.44-1.93c-.31-1.36-.58-2.24-.82-2.64-.24-.4-.58-.6-1.03-.6-.56,0-.86.17-.92.51-.06.34.08,1.25.42,2.73l.44,1.93h2.34Z"/>
      <path class="cls-1" d="M73.79,55.73l5.97,26.34h-8.16l-.36-2.19c-.35.89-.89,1.55-1.6,2-.71.44-1.6.67-2.66.67-1.2,0-2.25-.21-3.14-.64s-1.6-.99-2.14-1.69c-.54-.7-.94-1.43-1.2-2.19-.27-.76-.65-2.27-1.17-4.54l-4.03-17.77h8.02l4.07,17.93c.47,2.05.8,3.27,1.02,3.65.21.38.6.58,1.15.58.6,0,.9-.2.93-.6.02-.4-.21-1.67-.7-3.83l-4.02-17.73h8.02Z"/>
      <path class="cls-1" d="M84.33,52.22l.94,4.15h2.16l.95,4.17h-2.16l3.2,14.09c.39,1.73.7,2.7.93,2.9s.99.3,2.3.3l.96,4.25h-3.24c-1.83,0-3.15-.08-3.96-.23-.82-.15-1.58-.5-2.3-1.05-.72-.55-1.23-1.18-1.54-1.89-.31-.71-.76-2.37-1.35-4.99l-3.03-13.38h-1.73l-.95-4.17h1.73l-.94-4.15h8.04Z"/>
      <path class="cls-1" d="M107.35,64.15h-7.11l-.32-1.43c-.28-1.22-.52-1.99-.73-2.31-.21-.32-.6-.49-1.15-.49-.45,0-.75.15-.91.45-.16.3-.17.74-.03,1.34.18.81.37,1.4.57,1.78.2.38.63.79,1.29,1.24.66.45,1.97,1.11,3.91,1.97,2.59,1.14,4.36,2.21,5.32,3.22.96,1.01,1.65,2.47,2.09,4.39.49,2.14.57,3.76.27,4.85s-1.05,1.93-2.22,2.52c-1.17.59-2.68.88-4.52.88-2.04,0-3.85-.32-5.45-.95s-2.78-1.5-3.57-2.58c-.79-1.08-1.43-2.73-1.93-4.92l-.29-1.27h7.11l.38,1.67c.32,1.42.62,2.34.89,2.76.27.42.68.64,1.21.64.57,0,.93-.14,1.09-.43.16-.28.14-.88-.07-1.8-.28-1.26-.61-2.04-.97-2.36-.38-.32-2.14-1.26-5.31-2.82-2.66-1.32-4.36-2.52-5.13-3.6-.76-1.08-1.31-2.36-1.65-3.84-.48-2.1-.55-3.66-.22-4.66.33-1,1.1-1.77,2.31-2.31,1.21-.54,2.69-.81,4.45-.81s3.28.22,4.61.67c1.32.44,2.4,1.03,3.22,1.76.82.73,1.37,1.4,1.65,2.02.28.62.57,1.6.87,2.92l.35,1.53Z"/>
      <path class="cls-1" d="M128.19,65.68h-7.57l-.69-3.04c-.24-1.06-.49-1.78-.75-2.15-.26-.38-.62-.57-1.08-.57s-.74.17-.82.5c-.08.33,0,1.07.27,2.22l2.82,12.43c.21.94.49,1.64.84,2.11.34.47.75.7,1.21.7.54,0,.85-.24.94-.73.08-.49-.03-1.42-.34-2.78l-.71-3.14h7.15c.46,2.1.75,3.68.84,4.73s-.1,2.13-.6,3.24c-.5,1.11-1.29,1.94-2.36,2.5-1.08.56-2.5.84-4.28.84-2.26,0-4.15-.39-5.64-1.16-1.5-.77-2.68-1.86-3.55-3.26-.87-1.4-1.59-3.38-2.17-5.95l-1.7-7.48c-.51-2.24-.66-3.92-.47-5.06.19-1.14.92-2.15,2.19-3.05s2.95-1.34,5.06-1.34,3.98.44,5.66,1.33c1.68.89,2.92,2.01,3.72,3.36.8,1.35,1.47,3.26,2.03,5.74Z"/>
      <path class="cls-1" d="M135.03,49.93l1.64,7.23c.54-.64,1.18-1.11,1.91-1.43.73-.32,1.55-.48,2.46-.48,1.4,0,2.68.36,3.83,1.07,1.15.71,1.94,1.54,2.37,2.47s.93,2.64,1.49,5.11l4.11,18.16h-8.02l-4.2-18.54c-.35-1.54-.65-2.52-.9-2.96-.25-.44-.64-.66-1.17-.66-.49,0-.77.23-.84.67-.07.45.05,1.34.35,2.68l4.26,18.8h-8.02l-7.28-32.14h8.02Z"/>
      <path class="cls-1" d="M156.58,49.93l7.28,32.14h-8.26l-7.28-32.14h8.26Z"/>
      <path class="cls-1" d="M182.02,69.37h-10.38l1.29,5.7c.27,1.19.53,1.96.78,2.3.25.34.62.52,1.11.52.61,0,.96-.23,1.07-.68.1-.46,0-1.34-.29-2.65l-.79-3.47h7.6l.44,1.95c.37,1.63.55,2.88.54,3.75,0,.87-.28,1.81-.81,2.8s-1.32,1.74-2.36,2.23c-1.05.5-2.44.74-4.19.74s-3.25-.25-4.65-.73c-1.41-.49-2.57-1.16-3.48-2.01-.92-.85-1.63-1.79-2.14-2.82-.51-1.03-.99-2.52-1.43-4.48l-1.74-7.68c-.52-2.3-.62-4.12-.3-5.45.32-1.33,1.11-2.35,2.37-3.06,1.26-.71,2.8-1.06,4.64-1.06,2.25,0,4.2.43,5.86,1.28,1.66.85,2.94,1.99,3.85,3.39.91,1.41,1.65,3.39,2.23,5.95l.79,3.49ZM173.01,65.08l-.44-1.93c-.31-1.36-.58-2.24-.82-2.64-.24-.4-.58-.6-1.03-.6-.56,0-.86.17-.92.51-.06.34.08,1.25.42,2.73l.44,1.93h2.34Z"/>
      <path class="cls-1" d="M189.58,55.73l.47,3.46c.6-2.48,1.99-3.79,4.17-3.94l2.1,9.27c-1.47,0-2.5.2-3.1.6-.6.4-.9.95-.9,1.66,0,.71.29,2.34.87,4.89l2.35,10.4h-8.02l-5.96-26.34h8.02Z"/>
      <path class="cls-1" d="M204.27,55.73l.41,2.43c.36-.97.91-1.69,1.64-2.18.73-.48,1.65-.73,2.74-.73,1.38,0,2.58.32,3.6.97,1.02.65,1.77,1.47,2.24,2.45.47.99.97,2.63,1.49,4.93l4.18,18.46h-8.02l-4.13-18.24c-.41-1.81-.72-2.92-.93-3.32s-.59-.6-1.13-.6c-.57,0-.88.23-.92.68-.04.46.16,1.68.61,3.66l4.03,17.81h-8.02l-5.96-26.34h8.16Z"/>
      <path class="cls-1" d="M238.63,69.37h-10.38l1.29,5.7c.27,1.19.53,1.96.78,2.3.25.34.62.52,1.11.52.61,0,.96-.23,1.07-.68.1-.46,0-1.34-.29-2.65l-.79-3.47h7.6l.44,1.95c.37,1.63.55,2.88.54,3.75,0,.87-.28,1.81-.81,2.8s-1.32,1.74-2.36,2.23c-1.05.5-2.44.74-4.19.74s-3.25-.25-4.65-.73c-1.41-.49-2.57-1.16-3.48-2.01-.91-.85-1.63-1.79-2.14-2.82-.51-1.03-.99-2.52-1.43-4.48l-1.74-7.68c-.52-2.3-.62-4.12-.3-5.45.32-1.33,1.11-2.35,2.37-3.06,1.26-.71,2.8-1.06,4.64-1.06,2.25,0,4.2.43,5.86,1.28,1.66.85,2.94,1.99,3.85,3.39.91,1.41,1.65,3.39,2.23,5.95l.79,3.49ZM229.62,65.08l-.44-1.93c-.31-1.36-.58-2.24-.82-2.64-.24-.4-.58-.6-1.03-.6-.56,0-.86.17-.92.51-.06.34.08,1.25.42,2.73l.44,1.93h2.34Z"/>
      <path class="cls-1" d="M246.33,55.73l.41,2.43c.36-.97.91-1.69,1.64-2.18.73-.48,1.65-.73,2.74-.73,1.38,0,2.58.32,3.6.97,1.02.65,1.77,1.47,2.24,2.45.47.99.97,2.63,1.49,4.93l4.17,18.46h-8.02l-4.13-18.24c-.41-1.81-.72-2.92-.93-3.32s-.58-.6-1.13-.6c-.57,0-.88.23-.92.68-.04.46.16,1.68.61,3.66l4.03,17.81h-8.02l-5.96-26.34h8.16Z"/>
      <path class="cls-1" d="M276.38,49.93l7.27,32.14h-8.02l-.43-1.91c-.59.8-1.26,1.39-2.02,1.79-.76.4-1.6.6-2.53.6-1.24,0-2.4-.33-3.46-.98s-1.82-1.41-2.27-2.27c-.45-.86-.9-2.26-1.34-4.21l-2.79-12.33c-.46-2.02-.65-3.46-.59-4.31.07-.85.49-1.59,1.27-2.23.78-.64,1.81-.96,3.1-.96.99,0,1.94.18,2.85.54.91.36,1.78.9,2.62,1.61l-1.69-7.47h8.02ZM271.16,62.36c-.22-.97-.45-1.61-.69-1.95-.24-.33-.61-.5-1.1-.5s-.76.15-.86.45c-.1.3-.03.96.2,2l2.92,12.9c.24,1.07.48,1.78.72,2.11s.58.51,1.03.51c.52,0,.82-.19.9-.57.09-.38-.04-1.3-.37-2.77l-2.76-12.19Z"/>
      <path class="cls-1" d="M301.82,69.37h-10.38l1.29,5.7c.27,1.19.53,1.96.78,2.3.25.34.62.52,1.11.52.61,0,.96-.23,1.07-.68.1-.46,0-1.34-.29-2.65l-.79-3.47h7.6l.44,1.95c.37,1.63.55,2.88.54,3.75,0,.87-.28,1.81-.81,2.8s-1.32,1.74-2.36,2.23c-1.05.5-2.44.74-4.19.74s-3.25-.25-4.65-.73c-1.41-.49-2.57-1.16-3.48-2.01-.91-.85-1.63-1.79-2.14-2.82-.51-1.03-.99-2.52-1.43-4.48l-1.74-7.68c-.52-2.3-.62-4.12-.3-5.45.32-1.33,1.11-2.35,2.37-3.06,1.26-.71,2.8-1.06,4.64-1.06,2.25,0,4.2.43,5.86,1.28,1.66.85,2.94,1.99,3.85,3.39.91,1.41,1.65,3.39,2.23,5.95l.79,3.49ZM292.81,65.08l-.44-1.93c-.31-1.36-.58-2.24-.82-2.64-.24-.4-.58-.6-1.03-.6-.56,0-.86.17-.92.51-.06.34.08,1.25.42,2.73l.44,1.93h2.34Z"/>
    </g>
  </g>
</svg>