<?xml version="1.0" encoding="UTF-8"?>
<svg id="Capa_2" data-name="Capa 2" xmlns="http://www.w3.org/2000/svg" xmlns:xlink="http://www.w3.org/1999/xlink" viewBox="0 0 433.17 58.2">
  <defs>
    <style>
      .cls-1 {
        fill: url(#Degradado_sin_nombre_11);
        stroke-width: 0px;
      }
    </style>
    <linearGradient id="Degradado_sin_nombre_11" data-name="Degradado sin nombre 11" x1="-428.88" y1="8.37" x2="4.29" y2="8.37" gradientTransform="translate(428.88 20.73)" gradientUnits="userSpaceOnUse">
      <stop offset="0" stop-color="#00aeef"/>
      <stop offset="1" stop-color="#262262"/>
    </linearGradient>
  </defs>
  <g id="Layer_1" data-name="Layer 1">
    <g>
      <path class="cls-1" d="M34.87,30.38c1.21,5.02,1.95,8.56,2.22,10.65.27,2.08-.02,3.99-.87,5.71-.84,1.72-2.22,3.04-4.14,3.96-1.92.92-4.31,1.37-7.16,1.37s-5.25-.45-7.61-1.33c-2.37-.88-4.42-2.19-6.16-3.94s-2.98-3.65-3.73-5.71-1.75-5.66-3-10.8l-2.08-8.55C1.11,16.71.37,13.15.1,11.06c-.27-2.09.02-4,.86-5.73.84-1.73,2.23-3.05,4.15-3.97C7.04.44,9.43-.01,12.29,0c2.71.01,5.26.46,7.63,1.34,2.37.88,4.43,2.2,6.17,3.96s2.98,3.66,3.73,5.73,1.75,5.66,2.99,10.81l2.07,8.55ZM17.73,13.92c-.56-2.33-1.06-3.82-1.47-4.47-.42-.65-1.03-.98-1.85-.98-.69,0-1.15.26-1.39.78-.24.52-.04,2.07.58,4.65l5.66,23.34c.7,2.9,1.26,4.69,1.66,5.37s1.04,1.02,1.92,1.02,1.37-.39,1.43-1.17-.27-2.64-.98-5.58l-5.57-22.96Z"/>
      <path class="cls-1" d="M48.16,10.2l.8,5.39c.9-3.85,3.06-5.88,6.49-6.1l3.47,14.41c-2.31,0-3.93.3-4.87.91-.93.61-1.39,1.47-1.38,2.57.02,1.1.5,3.63,1.46,7.6l3.89,16.13-12.6-.03-9.89-40.92,12.63.05Z"/>
      <path class="cls-1" d="M88.11,10.34l7.54,31.48c1.02,4.24,1.57,6.99,1.67,8.22.1,1.24-.29,2.55-1.16,3.93-.87,1.38-2.29,2.43-4.27,3.15-1.97.72-4.59,1.08-7.85,1.07-4.01,0-7.38-.69-10.14-2.04-2.75-1.35-4.65-3.99-5.68-7.93l12.21.03c.43,1.8,1.31,2.71,2.64,2.71.95,0,1.52-.27,1.7-.83.18-.55.06-1.71-.37-3.48l-.74-3.08c-.85.96-1.81,1.69-2.89,2.18-1.08.49-2.27.73-3.58.73-2.26,0-4.24-.46-5.92-1.37-1.68-.91-2.97-2.09-3.86-3.56-.89-1.47-1.67-3.56-2.32-6.27l-3.58-14.86c-.94-3.89-.9-6.68.1-8.38,1-1.7,2.95-2.55,5.85-2.54,1.58,0,3.1.33,4.55.97s2.84,1.61,4.17,2.89l.16-3.09,11.73.04ZM78.08,21.15c-.45-1.87-.84-3.06-1.19-3.58s-.89-.77-1.64-.78-1.17.29-1.33.87c-.16.58-.03,1.74.38,3.47l3.3,13.74c.44,1.83.84,3.01,1.2,3.56.36.54.9.82,1.63.82.83,0,1.29-.32,1.38-.98s-.14-2.14-.7-4.46l-3.04-12.66Z"/>
      <path class="cls-1" d="M108.64,26.24l-11.8-.04-.66-2.74c-.76-3.16-.97-5.6-.64-7.31.33-1.71,1.44-3.22,3.35-4.53,1.91-1.31,4.64-1.95,8.19-1.94,4.26.02,7.64.77,10.15,2.27,2.51,1.5,4.24,3.33,5.2,5.5.95,2.17,2.23,6.63,3.84,13.37l4.87,20.47-12.21-.03-.87-3.63c-.42,1.46-1.15,2.55-2.19,3.27-1.04.72-2.4,1.09-4.08,1.08-2.2,0-4.36-.62-6.48-1.84s-3.68-3.9-4.67-8.02l-.8-3.35c-.73-3.06-.74-5.14-.03-6.24.71-1.11,2.82-2.39,6.33-3.86,3.75-1.59,5.7-2.66,5.86-3.21.16-.55.03-1.68-.37-3.39-.51-2.14-1-3.53-1.48-4.18-.48-.65-1.09-.97-1.83-.98-.85,0-1.32.27-1.39.81-.08.54.16,1.95.7,4.23l1.02,4.28ZM113.96,31.85c-1.66,1.45-2.54,2.67-2.63,3.65s.09,2.4.53,4.24c.5,2.11.97,3.47,1.4,4.09s1.05.92,1.88.93,1.24-.24,1.37-.72c.12-.48-.06-1.75-.55-3.8l-2-8.4Z"/>
      <path class="cls-1" d="M139.55,10.53l.68,3.76c.56-1.5,1.4-2.62,2.54-3.37,1.14-.75,2.57-1.12,4.29-1.11,2.15,0,4.03.52,5.64,1.53s2.78,2.28,3.54,3.81c.75,1.53,1.55,4.08,2.4,7.65l6.76,28.56-12.53-.03-6.69-28.23c-.67-2.81-1.17-4.52-1.5-5.14s-.92-.93-1.77-.93c-.89,0-1.37.35-1.43,1.06-.06.71.28,2.6,1,5.68l6.54,27.56-12.54-.03-9.7-40.81,12.78.05Z"/>
      <path class="cls-1" d="M171.87,1.66l1.53,6.5-12.91-.05-1.54-6.5,12.92.05ZM173.98,10.65l9.61,40.76-12.89-.03-9.63-40.77,12.91.05Z"/>
      <path class="cls-1" d="M208.12,23.79l-11.08-.04-.52-2.21c-.44-1.88-.83-3.08-1.17-3.58s-.94-.76-1.8-.76c-.7,0-1.18.23-1.42.69-.24.46-.26,1.15-.04,2.07.29,1.25.6,2.17.91,2.75.31.58.99,1.23,2.03,1.93,1.04.7,3.08,1.72,6.12,3.06,4.04,1.77,6.82,3.44,8.32,4.99,1.5,1.56,2.6,3.82,3.29,6.78.78,3.31.93,5.81.46,7.49-.47,1.68-1.62,2.98-3.43,3.88-1.82.9-4.16,1.35-7.02,1.35-3.18,0-6.01-.5-8.5-1.49s-4.36-2.32-5.6-4c-1.24-1.68-2.26-4.22-3.06-7.61l-.46-1.96,11.09.03.61,2.58c.51,2.19.99,3.61,1.42,4.26.43.66,1.06.98,1.89.99.89,0,1.45-.22,1.7-.65.25-.44.21-1.36-.13-2.77-.46-1.94-.97-3.16-1.54-3.65-.59-.49-3.36-1.95-8.3-4.38-4.16-2.06-6.84-3.92-8.03-5.59-1.2-1.67-2.07-3.65-2.61-5.95-.77-3.26-.9-5.66-.4-7.2s1.7-2.73,3.58-3.57,4.19-1.25,6.94-1.24,5.13.36,7.2,1.06c2.07.69,3.75,1.61,5.04,2.74,1.29,1.13,2.15,2.18,2.59,3.14s.9,2.47,1.38,4.52l.55,2.37Z"/>
      <path class="cls-1" d="M221.17,1.85l1.52,6.49-12.88-.05-1.52-6.49,12.88.05ZM223.26,10.83l9.51,40.7-12.85-.03-9.53-40.72,12.88.05Z"/>
      <path class="cls-1" d="M261.93,32.02l-16.14-.05,2.05,8.79c.43,1.84.84,3.02,1.23,3.55.39.53.97.8,1.73.8.95,0,1.5-.35,1.65-1.05.15-.7,0-2.07-.47-4.09l-1.25-5.36,11.82.03.7,3c.58,2.51.87,4.44.86,5.78s-.42,2.78-1.23,4.31-2.03,2.67-3.66,3.43c-1.62.76-3.79,1.14-6.5,1.13s-5.04-.39-7.24-1.15c-2.19-.76-4-1.8-5.43-3.12-1.43-1.32-2.54-2.77-3.35-4.35-.8-1.58-1.56-3.89-2.26-6.91l-2.77-11.87c-.83-3.56-1-6.37-.51-8.42.49-2.05,1.71-3.63,3.66-4.71,1.95-1.09,4.36-1.63,7.22-1.62,3.5.01,6.54.68,9.13,2.01,2.58,1.33,4.58,3.08,6.01,5.26,1.42,2.18,2.59,5.24,3.51,9.19l1.25,5.39ZM247.89,25.36l-.69-2.97c-.49-2.11-.92-3.47-1.29-4.08-.37-.61-.9-.92-1.6-.93-.87,0-1.34.26-1.42.78-.08.52.14,1.93.67,4.22l.69,2.97h3.64Z"/>
      <path class="cls-1" d="M274.6,11.01l.74,5.35c.92-3.83,3.07-5.85,6.46-6.06l3.31,14.32c-2.28,0-3.88.29-4.81.9-.93.61-1.39,1.46-1.38,2.55,0,1.09.47,3.61,1.38,7.55l3.71,16.03-12.44-.03-9.43-40.66,12.47.04Z"/>
      <path class="cls-1" d="M298.77,5.67l1.48,6.41h3.36s1.48,6.45,1.48,6.45h-3.36s5,21.72,5,21.72c.62,2.67,1.1,4.16,1.44,4.46s1.54.46,3.57.47l1.5,6.54h-5.01c-2.83-.02-4.88-.14-6.14-.38s-2.45-.78-3.57-1.63c-1.12-.85-1.92-1.82-2.39-2.91-.48-1.09-1.18-3.66-2.11-7.69l-4.76-20.64h-2.68s-1.49-6.45-1.49-6.45h2.68s-1.48-6.4-1.48-6.4l12.48.05Z"/>
      <path class="cls-1" d="M344.96,11.26l3.46,40.55-16.2-.04-15.55-40.61,11.1.04,10.28,29.66c-.23-2.18-.97-7.48-2.25-15.92-.73-4.71-1.37-9.28-1.93-13.72l11.09.04Z"/>
      <path class="cls-1" d="M379.07,25.62l2.25,9.93c.83,3.64,1.25,6.31,1.27,8.01.02,1.7-.41,3.28-1.28,4.75-.87,1.47-2.17,2.55-3.9,3.25-1.73.7-3.82,1.04-6.27,1.04-2.74,0-5.12-.31-7.16-.92-2.04-.6-3.72-1.51-5.05-2.73-1.33-1.21-2.41-2.68-3.26-4.4-.84-1.72-1.66-4.3-2.44-7.74l-2.37-10.39c-.86-3.77-1.12-6.72-.79-8.84s1.42-3.82,3.26-5.1,4.41-1.91,7.73-1.9c2.78.01,5.27.43,7.45,1.27,2.18.83,3.97,1.92,5.35,3.24,1.38,1.33,2.44,2.7,3.15,4.11s1.4,3.55,2.05,6.42ZM365.99,22.52c-.47-2.08-.88-3.39-1.23-3.93-.35-.54-.89-.81-1.63-.82s-1.17.27-1.29.81.05,1.85.53,3.93l4.17,18.3c.44,1.91.84,3.16,1.22,3.74.38.58.92.87,1.64.87s1.16-.26,1.28-.79c.11-.53-.03-1.67-.43-3.42l-4.25-18.7Z"/>
      <path class="cls-1" d="M393.52,11.43l.63,3.74c.56-1.49,1.41-2.6,2.54-3.34,1.13-.74,2.54-1.11,4.23-1.1,2.12,0,3.97.51,5.54,1.52s2.72,2.26,3.45,3.78c.73,1.52,1.49,4.05,2.29,7.59l6.4,28.36-12.35-.03-6.34-28.03c-.63-2.79-1.11-4.49-1.43-5.1s-.9-.92-1.74-.92c-.88,0-1.35.35-1.42,1.05-.07.7.25,2.58.94,5.64l6.19,27.36-12.36-.03-9.19-40.52,12.6.05Z"/>
      <path class="cls-1" d="M425.94,19.88l2.26,10.04-9.32-.03-2.26-10.04,9.33.03ZM430.91,41.96l2.26,10.05-9.31-.02-2.26-10.05,9.32.03Z"/>
    </g>
  </g>
</svg>