<?xml version="1.0" encoding="UTF-8"?>
<svg id="Capa_2" data-name="Capa 2" xmlns="http://www.w3.org/2000/svg" xmlns:xlink="http://www.w3.org/1999/xlink" viewBox="0 0 425.69 52.6">
  <defs>
    <style>
      .cls-1 {
        fill: url(#Degradado_sin_nombre_11);
        stroke-width: 0px;
      }
    </style>
    <linearGradient id="Degradado_sin_nombre_11" data-name="Degradado sin nombre 11" x1="-437.11" y1="11.76" x2="-11.42" y2="11.76" gradientTransform="translate(437.11 14.54)" gradientUnits="userSpaceOnUse">
      <stop offset="0" stop-color="#00aeef"/>
      <stop offset="1" stop-color="#262262"/>
    </linearGradient>
  </defs>
  <g id="Layer_1" data-name="Layer 1">
    <g>
      <path class="cls-1" d="M29.65,1.75l7.74,33.29c.88,3.77,1.37,6.42,1.48,7.95.11,1.53-.25,3.1-1.09,4.7-.84,1.61-2.15,2.83-3.93,3.66-1.79.83-4.02,1.25-6.71,1.25-2.97,0-5.71-.49-8.22-1.48-2.51-.98-4.51-2.26-6-3.84-1.5-1.58-2.55-3.24-3.16-5-.61-1.75-1.57-5.44-2.88-11.06L0,1.75h12.96l8.7,37.35c.51,2.17.95,3.56,1.32,4.17.38.6.92.91,1.64.91.82,0,1.27-.33,1.35-1,.08-.67-.17-2.24-.75-4.72L16.68,1.75h12.96Z"/>
      <path class="cls-1" d="M50.04,10.74l.66,3.76c.55-1.5,1.4-2.62,2.52-3.38,1.13-.75,2.54-1.13,4.25-1.13,2.13,0,4,.5,5.58,1.51s2.75,2.27,3.5,3.8c.74,1.53,1.53,4.08,2.36,7.65l6.64,28.6h-12.43s-6.56-28.26-6.56-28.26c-.65-2.81-1.14-4.52-1.47-5.14s-.91-.92-1.75-.92-1.35.35-1.42,1.06c-.06.71.27,2.6.98,5.68l6.41,27.59h-12.43l-9.49-40.82h12.65Z"/>
      <path class="cls-1" d="M83.22,5.29l1.49,6.43h3.35l1.5,6.46h-3.35l5.06,21.84c.62,2.69,1.11,4.18,1.46,4.49s1.54.46,3.57.46l1.53,6.58h-5.01c-2.83,0-4.88-.12-6.14-.35s-2.46-.78-3.58-1.63c-1.12-.85-1.92-1.82-2.4-2.92-.48-1.1-1.19-3.67-2.13-7.73l-4.81-20.73h-2.68l-1.5-6.46h2.68s-1.49-6.43-1.49-6.43h12.47Z"/>
      <path class="cls-1" d="M124.64,31.88h-16.09s2.04,8.83,2.04,8.83c.43,1.84.84,3.03,1.23,3.57.39.53.96.8,1.72.8.94,0,1.49-.35,1.65-1.06.15-.71,0-2.08-.47-4.11l-1.25-5.38h11.79l.7,3.01c.58,2.52.87,4.46.87,5.81s-.41,2.8-1.23,4.34-2.03,2.69-3.64,3.46c-1.62.77-3.78,1.15-6.49,1.15s-5.03-.38-7.22-1.14c-2.19-.76-3.99-1.8-5.41-3.12-1.42-1.32-2.54-2.78-3.33-4.37-.8-1.59-1.55-3.9-2.25-6.93l-2.76-11.9c-.83-3.57-1-6.38-.51-8.45.49-2.06,1.7-3.64,3.64-4.74,1.94-1.1,4.34-1.65,7.19-1.65,3.49,0,6.52.66,9.09,1.99,2.57,1.32,4.57,3.08,5.99,5.26,1.42,2.18,2.59,5.26,3.5,9.21l1.25,5.41ZM110.63,25.23l-.69-2.98c-.49-2.11-.92-3.48-1.29-4.09-.37-.62-.9-.92-1.6-.92-.86,0-1.34.26-1.42.78-.08.52.14,1.93.67,4.23l.69,2.98h3.63Z"/>
      <path class="cls-1" d="M137.25,10.74l.75,5.37c.92-3.85,3.06-5.88,6.44-6.11l3.32,14.37c-2.28,0-3.88.31-4.8.92-.92.62-1.38,1.47-1.38,2.57,0,1.1.47,3.62,1.38,7.58l3.72,16.11h-12.43l-9.44-40.82h12.44Z"/>
      <path class="cls-1" d="M176.79,23.79h-11.02l-.51-2.22c-.44-1.89-.82-3.08-1.15-3.58s-.93-.75-1.79-.75c-.7,0-1.17.23-1.41.69-.24.46-.26,1.15-.04,2.08.29,1.25.59,2.17.9,2.75.31.59.98,1.23,2.01,1.92,1.03.7,3.06,1.71,6.07,3.05,4.02,1.76,6.77,3.42,8.26,4.98,1.49,1.56,2.57,3.82,3.26,6.8.77,3.32.91,5.83.44,7.52-.47,1.69-1.61,2.99-3.42,3.9-1.81.91-4.14,1.37-6.99,1.37-3.16,0-5.97-.49-8.45-1.48s-4.32-2.32-5.55-4c-1.23-1.68-2.24-4.22-3.02-7.63l-.45-1.97h11.02l.6,2.58c.51,2.19.97,3.62,1.4,4.27.43.66,1.05.98,1.87.98.88,0,1.45-.22,1.69-.66.25-.44.21-1.37-.12-2.78-.45-1.95-.96-3.17-1.52-3.66-.59-.49-3.33-1.95-8.24-4.37-4.13-2.05-6.78-3.91-7.97-5.58-1.19-1.67-2.04-3.66-2.58-5.95-.75-3.26-.88-5.67-.37-7.22s1.69-2.74,3.56-3.59,4.17-1.26,6.9-1.26,5.09.34,7.15,1.03c2.06.69,3.72,1.6,5,2.72,1.28,1.13,2.13,2.18,2.57,3.14s.89,2.47,1.37,4.52l.55,2.37Z"/>
      <path class="cls-1" d="M190.92,5.29l1.48,6.43h3.35l1.49,6.46h-3.35l5.03,21.84c.62,2.69,1.1,4.18,1.45,4.49s1.54.46,3.57.46l1.52,6.58h-5.01c-2.83,0-4.88-.12-6.14-.35s-2.46-.78-3.58-1.63c-1.12-.85-1.92-1.82-2.4-2.92-.48-1.1-1.19-3.67-2.12-7.73l-4.78-20.73h-2.68l-1.49-6.46h2.68l-1.48-6.43h12.47Z"/>
      <path class="cls-1" d="M227.75,10.74l9.38,40.82h-12.64l-.56-3.39c-.54,1.38-1.37,2.41-2.47,3.1s-2.48,1.03-4.12,1.03c-1.87,0-3.49-.33-4.87-.98s-2.49-1.53-3.32-2.61c-.83-1.09-1.46-2.22-1.87-3.4-.42-1.18-1.03-3.52-1.83-7.03l-6.34-27.53h12.44l6.39,27.78c.73,3.18,1.26,5.06,1.59,5.66s.93.89,1.79.89c.92,0,1.4-.31,1.43-.92.03-.61-.34-2.59-1.1-5.93l-6.32-27.47h12.44ZM208.32,0l1.84,8h-8.03l-1.84-8h8.04ZM221.78,0l1.84,8h-8.03L213.74,0h8.04Z"/>
      <path class="cls-1" d="M245.09,5.29l1.48,6.43h3.35s1.48,6.46,1.48,6.46h-3.35l5.02,21.84c.62,2.69,1.1,4.18,1.45,4.49s1.54.46,3.57.46l1.51,6.58h-5.01c-2.83,0-4.88-.12-6.14-.35s-2.46-.78-3.57-1.63c-1.12-.85-1.92-1.82-2.39-2.92-.48-1.1-1.18-3.67-2.12-7.73l-4.76-20.73h-2.68s-1.49-6.46-1.49-6.46h2.68l-1.48-6.43h12.47Z"/>
      <path class="cls-1" d="M274.19,10.74l2.07,9.05-3.76,23.59h9.17l1.88,8.18h-21.2l-1.96-8.55,3.83-24.08h-8.41l-1.88-8.19h20.25Z"/>
      <path class="cls-1" d="M290.79,5.29l1.47,6.43h3.35s1.48,6.46,1.48,6.46h-3.35l5,21.84c.62,2.69,1.1,4.18,1.44,4.49s1.54.46,3.57.46l1.51,6.58h-5.01c-2.83,0-4.88-.12-6.14-.35s-2.45-.78-3.57-1.63c-1.12-.85-1.92-1.82-2.39-2.92-.48-1.1-1.18-3.67-2.11-7.73l-4.75-20.73h-2.68l-1.48-6.46h2.68l-1.47-6.43h12.47Z"/>
      <path class="cls-1" d="M336.99,10.74l3.51,40.82h-16.24s-15.58-40.82-15.58-40.82h11.1l10.32,29.81c-.23-2.19-.98-7.53-2.26-16.02-.73-4.74-1.38-9.34-1.95-13.79h11.1Z"/>
      <path class="cls-1" d="M371.22,25.08l2.28,10c.84,3.67,1.27,6.36,1.29,8.07.02,1.71-.4,3.31-1.28,4.8-.87,1.49-2.18,2.58-3.91,3.29-1.74.71-3.83,1.06-6.3,1.06-2.75,0-5.14-.3-7.19-.91-2.05-.6-3.74-1.52-5.07-2.74-1.34-1.22-2.43-2.69-3.27-4.43-.85-1.73-1.67-4.33-2.46-7.79l-2.39-10.46c-.87-3.79-1.13-6.76-.8-8.89s1.42-3.85,3.26-5.14,4.42-1.94,7.75-1.94c2.79,0,5.28.42,7.47,1.25,2.19.83,3.98,1.91,5.37,3.25,1.39,1.33,2.45,2.71,3.17,4.12s1.41,3.57,2.07,6.46ZM358.08,22c-.48-2.09-.89-3.41-1.24-3.95-.35-.54-.89-.82-1.63-.82s-1.17.27-1.29.82.06,1.86.53,3.95l4.2,18.42c.44,1.93.85,3.18,1.23,3.77.38.58.93.88,1.65.88s1.16-.27,1.28-.8c.11-.53-.03-1.68-.43-3.44l-4.3-18.82Z"/>
      <path class="cls-1" d="M385.7,10.74l.64,3.76c.56-1.5,1.41-2.62,2.54-3.38,1.13-.75,2.55-1.13,4.25-1.13,2.13,0,3.99.5,5.58,1.51s2.74,2.27,3.48,3.8c.74,1.53,1.51,4.08,2.32,7.65l6.51,28.6h-12.43s-6.44-28.26-6.44-28.26c-.64-2.81-1.12-4.52-1.45-5.14s-.91-.92-1.75-.92-1.36.35-1.42,1.06c-.07.71.25,2.6.95,5.68l6.28,27.59h-12.43l-9.3-40.82h12.65Z"/>
      <path class="cls-1" d="M418.32,19.14l2.3,10.12h-9.39l-2.3-10.12h9.39ZM423.38,41.41l2.31,10.15h-9.38s-2.31-10.15-2.31-10.15h9.38Z"/>
    </g>
  </g>
</svg>