<?xml version="1.0" encoding="UTF-8"?>
<svg id="Capa_2" data-name="Capa 2" xmlns="http://www.w3.org/2000/svg" xmlns:xlink="http://www.w3.org/1999/xlink" viewBox="0 0 271.57 73.34">
  <defs>
    <style>
      .cls-1 {
        fill: url(#Degradado_sin_nombre_11);
        stroke-width: 0px;
      }
    </style>
    <linearGradient id="Degradado_sin_nombre_11" data-name="Degradado sin nombre 11" x1="-386.62" y1="45.86" x2="-115.05" y2="45.86" gradientTransform="translate(386.62 -9.19)" gradientUnits="userSpaceOnUse">
      <stop offset="0" stop-color="#00aeef"/>
      <stop offset="1" stop-color="#262262"/>
    </linearGradient>
  </defs>
  <g id="Layer_1" data-name="Layer 1">
    <g>
      <path class="cls-1" d="M31.7,3.15l3.19,13.77-3.97,41.5,13.57-.02,3.22,13.91H14.12s-2.3-10.06-2.3-10.06l3.6-45.24-12.28.06L0,3.33l31.7-.18Z"/>
      <path class="cls-1" d="M80.23,15.34l13.42,56.96h-17.94s-.81-4.75-.81-4.75c-.77,1.93-1.93,3.37-3.5,4.34-1.56.96-3.5,1.45-5.82,1.45-2.64,0-4.94-.46-6.89-1.38s-3.52-2.14-4.69-3.66c-1.18-1.52-2.06-3.1-2.64-4.74-.58-1.65-1.44-4.92-2.58-9.81l-8.86-38.23,17.46-.08,9.02,38.62c1.04,4.44,1.79,7.08,2.26,7.9.47.83,1.32,1.25,2.53,1.25,1.31,0,1.98-.43,2.03-1.29.05-.86-.48-3.63-1.57-8.29l-8.94-38.21,17.53-.08Z"/>
      <path class="cls-1" d="M105.55,15.22l1.08,7.47c1.29-5.36,4.32-8.21,9.11-8.55l4.79,20.03c-3.24.01-5.51.45-6.83,1.31-1.31.86-1.96,2.06-1.95,3.59.02,1.54.68,5.07,2,10.61l5.38,22.61h-17.71s-13.47-57-13.47-57l17.6-.08Z"/>
      <path class="cls-1" d="M161.95,14.95l13.94,57.34h-18.18s-.85-4.78-.85-4.78c-.77,1.94-1.94,3.39-3.52,4.37-1.58.97-3.54,1.46-5.89,1.46-2.68,0-5.01-.46-6.99-1.39s-3.58-2.15-4.78-3.68c-1.2-1.53-2.1-3.12-2.71-4.78-.6-1.66-1.49-4.95-2.67-9.87l-9.21-38.48,17.7-.08,9.37,38.88c1.08,4.47,1.86,7.12,2.34,7.96.48.84,1.34,1.26,2.58,1.26,1.32,0,2.01-.43,2.05-1.3.04-.87-.51-3.65-1.64-8.35l-9.29-38.47,17.76-.08ZM134.13.11l2.68,11.14-11.43.06L122.72.18l11.42-.07ZM153.3,0l2.71,11.15-11.47.06L141.84.07l11.45-.07Z"/>
      <path class="cls-1" d="M214.64,36.39l-16.92.05-1.63-6.61c-.57-2.3-1.14-3.87-1.73-4.69s-1.39-1.23-2.43-1.22-1.64.37-1.82,1.09c-.18.72.04,2.33.66,4.84l6.65,27.1c.51,2.06,1.15,3.6,1.94,4.63.78,1.03,1.7,1.54,2.73,1.54,1.21,0,1.91-.54,2.07-1.61.16-1.08-.12-3.1-.85-6.09l-1.69-6.86,16.01-.03c1.11,4.6,1.8,8.06,2.05,10.37s-.15,4.67-1.23,7.09c-1.08,2.43-2.82,4.26-5.22,5.49-2.4,1.23-5.59,1.85-9.57,1.85-5.07,0-9.3-.85-12.67-2.55-3.37-1.69-6.05-4.07-8.02-7.12-1.97-3.05-3.64-7.38-5-12.98l-3.97-16.3c-1.19-4.86-1.58-8.52-1.18-11,.4-2.47,1.99-4.69,4.79-6.64,2.79-1.96,6.53-2.94,11.22-2.96s8.88.92,12.66,2.83c3.78,1.91,6.59,4.33,8.41,7.27s3.4,7.1,4.74,12.5Z"/>
      <path class="cls-1" d="M254.82,14.51l-1.57,22.96,18.32,34.82h-17.46s-11.95-25.21-11.95-25.21l6.28,25.21h-18.09S212.93,2.1,212.93,2.1l17.94-.1,7.37,29.4,1.42-16.81,15.16-.07Z"/>
    </g>
  </g>
</svg>